<svg width="40" height="46" viewBox="0 0 40 46" fill="none" xmlns="http://www.w3.org/2000/svg">
<path d="M19 22.1006L0 12.1006V33.9006C0.000199598 34.2648 0.0998742 34.6221 0.288267 34.9339C0.476659 35.2456 0.746615 35.5 1.069 35.6696L19 45.1006V22.1006Z" fill="#9FEE92"/>
<path d="M20 20.3711L39 10.3711L20.922 0.979106C20.6372 0.831148 20.321 0.753906 20 0.753906C19.679 0.753906 19.3628 0.831148 19.078 0.979106L1 10.3701L20 20.3711Z" fill="#9FEE92"/>
<path d="M21 22.1006V45.1006L38.931 35.6626C39.2523 35.4936 39.5216 35.2403 39.7099 34.9299C39.8983 34.6195 39.9985 34.2637 40 33.9006V12.1006L21 22.1006Z" fill="#9FEE92"/>
</svg>
