<svg width="167" height="48" viewBox="0 0 167 48" fill="none" xmlns="http://www.w3.org/2000/svg">
<path d="M23 23.1L4 13.1V34.9C4.0002 35.2643 4.09987 35.6215 4.28827 35.9333C4.47666 36.2451 4.74661 36.4994 5.069 36.669L23 46.1V23.1Z" fill="#242424"/>
<path d="M24 21.371L43 11.371L24.922 1.979C24.6372 1.83104 24.321 1.7538 24 1.7538C23.679 1.7538 23.3628 1.83104 23.078 1.979L5 11.37L24 21.371Z" fill="#242424"/>
<path d="M25 23.1V46.1L42.931 36.662C43.2523 36.493 43.5216 36.2397 43.7099 35.9293C43.8983 35.6189 43.9985 35.2631 44 34.9V13.1L25 23.1Z" fill="#242424"/>
<path d="M91.6 10V14.88H83.04V38H78.16V14.88H69.6V10H91.6ZM92.3734 30.6V18H97.2534V29.32C97.2534 30.1067 97.4468 30.8267 97.8334 31.48C98.2201 32.12 98.7334 32.6333 99.3734 33.02C100.027 33.3933 100.74 33.58 101.513 33.58C102.313 33.58 103.033 33.3933 103.673 33.02C104.313 32.6333 104.827 32.12 105.213 31.48C105.6 30.8267 105.793 30.1067 105.793 29.32V18H110.673L110.693 38H105.813L105.793 36.18C105.1 36.9 104.28 37.4733 103.333 37.9C102.387 38.3133 101.373 38.52 100.293 38.52C98.8401 38.52 97.5134 38.1667 96.3134 37.46C95.1134 36.74 94.1534 35.7867 93.4334 34.6C92.7268 33.4 92.3734 32.0667 92.3734 30.6ZM114.814 38V8H119.694V38H114.814ZM132.989 38.52C131.149 38.52 129.469 38.0467 127.949 37.1C126.442 36.1533 125.236 34.88 124.329 33.28C123.436 31.68 122.989 29.9133 122.989 27.98C122.989 26.5267 123.249 25.1667 123.769 23.9C124.289 22.62 125.002 21.5 125.909 20.54C126.829 19.5667 127.896 18.8067 129.109 18.26C130.322 17.7133 131.616 17.44 132.989 17.44C134.549 17.44 135.976 17.7733 137.269 18.44C138.576 19.0933 139.682 19.9933 140.589 21.14C141.496 22.2867 142.156 23.5933 142.569 25.06C142.982 26.5267 143.076 28.06 142.849 29.66H128.229C128.416 30.4067 128.722 31.08 129.149 31.68C129.576 32.2667 130.116 32.74 130.769 33.1C131.422 33.4467 132.162 33.6267 132.989 33.64C133.842 33.6533 134.616 33.4533 135.309 33.04C136.016 32.6133 136.602 32.04 137.069 31.32L142.049 32.48C141.236 34.2533 140.022 35.7067 138.409 36.84C136.796 37.96 134.989 38.52 132.989 38.52ZM128.069 26H137.909C137.762 25.2 137.449 24.48 136.969 23.84C136.502 23.1867 135.922 22.6667 135.229 22.28C134.536 21.8933 133.789 21.7 132.989 21.7C132.189 21.7 131.449 21.8933 130.769 22.28C130.089 22.6533 129.509 23.1667 129.029 23.82C128.562 24.46 128.242 25.1867 128.069 26ZM164.423 25.36V38H159.543V26.64C159.543 25.8533 159.35 25.14 158.963 24.5C158.576 23.8467 158.056 23.3333 157.403 22.96C156.763 22.5733 156.05 22.38 155.263 22.38C154.476 22.38 153.756 22.5733 153.103 22.96C152.463 23.3333 151.95 23.8467 151.563 24.5C151.19 25.14 151.003 25.8533 151.003 26.64V38H146.123L146.103 18H150.983L151.003 19.78C151.683 19.06 152.496 18.4933 153.443 18.08C154.39 17.6533 155.41 17.44 156.503 17.44C157.956 17.44 159.283 17.8 160.483 18.52C161.683 19.2267 162.636 20.18 163.343 21.38C164.063 22.5667 164.423 23.8933 164.423 25.36Z" fill="#242424"/>
</svg>
