<svg width="64" height="64" viewBox="0 0 64 64" fill="none" xmlns="http://www.w3.org/2000/svg">
<path d="M56 57H8C4.691 57 2 54.309 2 51V13C2 9.691 4.691 7 8 7H38C38.553 7 39 7.447 39 8C39 8.553 38.553 9 38 9H8C5.794 9 4 10.794 4 13V51C4 53.206 5.794 55 8 55H56C58.206 55 60 53.206 60 51V20C60 19.447 60.447 19 61 19C61.553 19 62 19.447 62 20V51C62 54.309 59.309 57 56 57Z" fill="#242424"/>
<path d="M20 26C17.243 26 15 23.757 15 21C15 18.243 17.243 16 20 16C22.757 16 25 18.243 25 21C25 23.757 22.757 26 20 26Z" fill="#242424"/>
<path d="M52 48.0001H12C11.634 48.0001 11.298 47.8001 11.122 47.4791C10.947 47.1581 10.961 46.7661 11.159 46.4581L20.159 32.4581C20.322 32.2041 20.593 32.0371 20.893 32.0051C21.191 31.9691 21.493 32.0781 21.706 32.2921L27.882 38.4681L38.193 24.4071C38.392 24.1361 38.716 23.9811 39.049 24.0001C39.384 24.0171 39.69 24.2011 39.861 24.4901L52.861 46.4901C53.044 46.8001 53.047 47.1821 52.868 47.4951C52.69 47.8071 52.359 48.0001 52 48.0001Z" fill="#242424"/>
<path d="M53 21C52.447 21 52 20.553 52 20C52 15.589 48.411 12 44 12C43.447 12 43 11.553 43 11C43 10.447 43.447 10 44 10C48.411 10 52 6.411 52 2C52 1.447 52.447 1 53 1C53.553 1 54 1.447 54 2C54 6.411 57.589 10 62 10C62.553 10 63 10.447 63 11C63 11.553 62.553 12 62 12C57.589 12 54 15.589 54 20C54 20.553 53.553 21 53 21Z" fill="#242424"/>
</svg>
