<svg width="64" height="64" viewBox="0 0 64 64" fill="none" xmlns="http://www.w3.org/2000/svg">
<path d="M19 20.9999C18.8151 20.9997 18.6338 20.9485 18.476 20.8519L5.47602 12.8519C5.33131 12.7623 5.2119 12.6371 5.12908 12.4884C5.04627 12.3396 5.00281 12.1722 5.00281 12.0019C5.00281 11.8317 5.04627 11.6643 5.12908 11.5155C5.2119 11.3668 5.33131 11.2416 5.47602 11.1519L18.476 3.15194C18.6336 3.05499 18.815 3.00366 19 3.00366C19.185 3.00366 19.3664 3.05499 19.524 3.15194L32.524 11.1519C32.6687 11.2416 32.7882 11.3668 32.871 11.5155C32.9538 11.6643 32.9972 11.8317 32.9972 12.0019C32.9972 12.1722 32.9538 12.3396 32.871 12.4884C32.7882 12.6371 32.6687 12.7623 32.524 12.8519L19.524 20.8519C19.3663 20.9485 19.185 20.9997 19 20.9999Z" fill="#242424"/>
<path d="M60 40H38C37.7348 40 37.4804 39.8946 37.2929 39.7071C37.1054 39.5196 37 39.2652 37 39V25C37 24.7348 37.1054 24.4804 37.2929 24.2929C37.4804 24.1054 37.7348 24 38 24H60C60.2652 24 60.5196 24.1054 60.7071 24.2929C60.8946 24.4804 61 24.7348 61 25V39C61 39.2652 60.8946 39.5196 60.7071 39.7071C60.5196 39.8946 60.2652 40 60 40Z" fill="#242424"/>
<path d="M24 61H14C11.8783 61 9.84344 60.1571 8.34315 58.6569C6.84285 57.1566 6 55.1217 6 53C6 50.8783 6.84285 48.8434 8.34315 47.3431C9.84344 45.8429 11.8783 45 14 45H24C26.1217 45 28.1566 45.8429 29.6569 47.3431C31.1571 48.8434 32 50.8783 32 53C32 55.1217 31.1571 57.1566 29.6569 58.6569C28.1566 60.1571 26.1217 61 24 61Z" fill="#242424"/>
<path d="M20 23H18V43H20V23Z" fill="#242424"/>
<path d="M49 11H35V13H48V22H50V12C50 11.7348 49.8946 11.4804 49.7071 11.2929C49.5196 11.1054 49.2652 11 49 11Z" fill="#242424"/>
<path d="M48 42V52H34V54H49C49.2652 54 49.5196 53.8946 49.7071 53.7071C49.8946 53.5196 50 53.2652 50 53V42H48Z" fill="#242424"/>
</svg>
