<svg width="62" height="64" viewBox="0 0 62 64" fill="none" xmlns="http://www.w3.org/2000/svg">
<path d="M20 31.9999C20 31.9799 20 31.9609 20 31.9409C20 29.0235 21.1589 26.2256 23.2218 24.1627C25.2847 22.0998 28.0826 20.9409 31 20.9409C33.9174 20.9409 36.7153 22.0998 38.7782 24.1627C40.8411 26.2256 42 29.0235 42 31.9409C42 31.9609 42 31.9799 42 31.9999H62V27.9409C61.9999 27.6972 61.9109 27.4619 61.7496 27.2793C61.5883 27.0966 61.3658 26.9791 61.124 26.9489L53.208 25.9599C52.693 24.0374 51.9281 22.1906 50.933 20.4669L55.833 14.1669C55.9825 13.9744 56.0566 13.734 56.0413 13.4907C56.026 13.2475 55.9224 13.0182 55.75 12.8459L50.091 7.19292C49.9186 7.02062 49.6893 6.9172 49.446 6.9021C49.2028 6.887 48.9624 6.96126 48.77 7.11092L42.47 12.0109C40.7475 11.0182 38.9025 10.2551 36.982 9.74092L35.992 1.81992C35.9625 1.57756 35.8453 1.35439 35.6625 1.19247C35.4798 1.03055 35.2441 0.941077 35 0.940918H27C26.7563 0.940987 26.521 1.03004 26.3384 1.19134C26.1557 1.35265 26.0382 1.57511 26.008 1.81692L25.018 9.74092C23.0958 10.2551 21.2496 11.02 19.527 12.0159L13.227 7.11592C13.0346 6.96626 12.7942 6.892 12.551 6.9071C12.3077 6.9222 12.0784 7.02562 11.906 7.19792L6.252 12.8499C6.07955 13.0222 5.97596 13.2515 5.96067 13.4947C5.94539 13.738 6.01947 13.9784 6.169 14.1709L11.069 20.4709C10.0768 22.194 9.31403 24.0392 8.8 25.9599L0.879 26.9489C0.636644 26.9785 0.413469 27.0956 0.251551 27.2784C0.0896325 27.4611 0.000159316 27.6968 0 27.9409V31.9999H20Z" fill="#242424"/>
<path d="M55 43C54.288 43.0035 53.5901 43.199 52.98 43.566L48 38.586V34H46V39C46.0001 39.2652 46.1054 39.5195 46.293 39.707L51.566 44.98C51.199 45.5901 51.0035 46.288 51 47C51 47.7911 51.2346 48.5645 51.6741 49.2223C52.1136 49.8801 52.7384 50.3928 53.4693 50.6955C54.2002 50.9983 55.0044 51.0775 55.7804 50.9231C56.5563 50.7688 57.269 50.3878 57.8284 49.8284C58.3878 49.269 58.7688 48.5563 58.9231 47.7804C59.0775 47.0044 58.9983 46.2002 58.6955 45.4693C58.3928 44.7384 57.8801 44.1136 57.2223 43.6741C56.5645 43.2346 55.7911 43 55 43Z" fill="#242424"/>
<path d="M15.707 39.707C15.8946 39.5195 15.9999 39.2652 16 39V34H14V38.586L9.02 43.566C8.40985 43.199 7.71199 43.0035 7 43C6.20888 43 5.43552 43.2346 4.77772 43.6741C4.11992 44.1136 3.60723 44.7384 3.30448 45.4693C3.00173 46.2002 2.92252 47.0044 3.07686 47.7804C3.2312 48.5563 3.61216 49.269 4.17157 49.8284C4.73098 50.3878 5.44372 50.7688 6.21964 50.9231C6.99556 51.0775 7.79983 50.9983 8.53074 50.6955C9.26164 50.3928 9.88635 49.8801 10.3259 49.2223C10.7654 48.5645 11 47.7911 11 47C10.9965 46.288 10.801 45.5901 10.434 44.98L15.707 39.707Z" fill="#242424"/>
<path d="M22 42.586L16.293 48.293C16.1055 48.4805 16.0001 48.7348 16 49V53.141C15.0574 53.3844 14.2358 53.9632 13.6894 54.769C13.143 55.5748 12.9092 56.5522 13.0319 57.518C13.1546 58.4838 13.6253 59.3717 14.3558 60.0153C15.0863 60.6589 16.0264 61.014 17 61.014C17.9736 61.014 18.9137 60.6589 19.6442 60.0153C20.3747 59.3717 20.8455 58.4838 20.9681 57.518C21.0908 56.5522 20.857 55.5748 20.3106 54.769C19.7642 53.9632 18.9427 53.3844 18 53.141V49.414L23.707 43.707C23.8946 43.5195 24 43.2652 24 43V34H22V42.586Z" fill="#242424"/>
<path d="M46 53.141V49C45.9999 48.7348 45.8946 48.4805 45.707 48.293L40 42.586V34H38V43C38.0001 43.2652 38.1054 43.5195 38.293 43.707L44 49.414V53.141C43.0573 53.3844 42.2358 53.9632 41.6894 54.769C41.143 55.5748 40.9092 56.5522 41.0319 57.518C41.1546 58.4838 41.6253 59.3717 42.3558 60.0153C43.0863 60.6589 44.0264 61.014 45 61.014C45.9736 61.014 46.9137 60.6589 47.6442 60.0153C48.3747 59.3717 48.8454 58.4838 48.9681 57.518C49.0908 56.5522 48.857 55.5748 48.3106 54.769C47.7642 53.9632 46.9427 53.3844 46 53.141Z" fill="#242424"/>
<path d="M32 55.141V34H30V55.141C29.0574 55.3844 28.2358 55.9632 27.6894 56.769C27.143 57.5748 26.9092 58.5522 27.0319 59.518C27.1546 60.4838 27.6253 61.3717 28.3558 62.0153C29.0863 62.6589 30.0264 63.014 31 63.014C31.9736 63.014 32.9137 62.6589 33.6442 62.0153C34.3747 61.3717 34.8455 60.4838 34.9681 59.518C35.0908 58.5522 34.857 57.5748 34.3106 56.769C33.7642 55.9632 32.9427 55.3844 32 55.141Z" fill="#242424"/>
</svg>
