<svg width="64" height="64" viewBox="0 0 64 64" fill="none" xmlns="http://www.w3.org/2000/svg">
<path d="M33 55V62H59C59.552 62 60 61.552 60 61V60C60 57.239 57.761 55 55 55H33Z" fill="#242424"/>
<path d="M31 10.959V2H30C19.523 2 11 10.523 11 21H12C19.622 21 26.701 17.253 31 10.959Z" fill="#242424"/>
<path d="M12 22.9999H11V29.9999C11 38.0029 15.981 44.8519 23 47.6469V50.3149C23 52.6089 21.439 54.6089 19.213 55.1659L4.72705 58.7879C3.69405 59.0459 2.97505 59.9859 3.00105 61.0559C3.01405 61.5849 3.47105 61.9999 4.00005 61.9999H31V14.2429C26.2761 19.7729 19.372 22.9999 12 22.9999Z" fill="#242424"/>
<path d="M33 17V35H35V41H33V53H41V48.949C47.701 48.435 53 42.83 53 36V17H33ZM39 41H37V35H39V41ZM41 41V35C42.657 35 44 36.343 44 38C44 39.657 42.657 41 41 41ZM42 28C40.346 28 39 26.654 39 25C39 23.346 40.346 22 42 22C43.654 22 45 23.346 45 25C45 26.654 43.654 28 42 28Z" fill="#242424"/>
<path d="M62 15C62 13.346 60.654 12 59 12C57.346 12 56 13.346 56 15C56 16.302 56.839 17.402 58 17.816V29C58 29.552 57.552 30 57 30H54V32H57C58.654 32 60 30.654 60 29V17.816C61.161 17.402 62 16.302 62 15Z" fill="#242424"/>
<path d="M38 2H33V10H38V2Z" fill="#242424"/>
<path d="M53 15C53 7.832 47.168 2 40 2V11C40 11.553 39.553 12 39 12H33V15H43V11C43 10.448 43.448 10 44 10C44.552 10 45 10.448 45 11V15H53Z" fill="#242424"/>
</svg>
