<svg width="64" height="64" viewBox="0 0 64 64" fill="none" xmlns="http://www.w3.org/2000/svg">
<path d="M55.487 23.8439C56.913 20.1499 56.634 15.9469 54.625 12.4669C52.86 9.41189 50.013 7.22689 46.605 6.31389C43.234 5.40889 39.719 5.86289 36.687 7.57889C34.201 4.49589 30.415 2.63989 26.396 2.63989C19.153 2.63989 13.258 8.50189 13.194 15.7299C9.27898 16.3419 5.77998 18.6929 3.77198 22.1729C0.147979 28.4469 2.27898 36.4879 8.51298 40.1559C7.08698 43.8499 7.36598 48.0529 9.37498 51.5329C11.14 54.5879 13.987 56.7729 17.395 57.6859C18.534 57.9919 19.688 58.1419 20.835 58.1419C23.085 58.1419 25.303 57.5559 27.312 56.4199C29.798 59.5039 33.584 61.3599 37.604 61.3599C44.847 61.3599 50.742 55.4979 50.806 48.2699C54.721 47.6579 58.22 45.3069 60.228 41.8269C63.852 35.5529 61.721 27.5119 55.487 23.8439ZM51.161 14.4669C52.455 16.7079 52.711 19.3769 51.962 21.8019L42.025 16.0649L27.213 24.6169V17.6609L38.584 11.0979C42.98 8.56089 48.622 10.0709 51.161 14.4679V14.4669ZM36.789 34.7639L32.001 37.5289L27.213 34.7649V29.2359L32.001 26.4709L36.789 29.2349V34.7639ZM17.188 15.8479C17.188 10.7709 21.319 6.63989 26.396 6.63989C28.983 6.63989 31.422 7.75289 33.148 9.61489L23.212 15.3519V32.4559L17.188 28.9779V15.8479ZM7.23598 24.1729C8.52898 21.9319 10.713 20.3769 13.188 19.8129V31.2869L27.999 39.8399L21.976 43.3179L10.605 36.7539C6.20898 34.2139 4.69698 28.5709 7.23598 24.1749V24.1729ZM12.84 49.5329C11.546 47.2919 11.29 44.6229 12.039 42.1979L21.976 47.9349L36.788 39.3829V46.3389L25.417 52.9019C21.021 55.4399 15.379 53.9289 12.84 49.5329ZM46.812 48.1519C46.812 53.2289 42.681 57.3599 37.604 57.3599C35.017 57.3599 32.578 56.2469 30.852 54.3849L40.788 48.6479V31.5439L46.812 35.0219V48.1519ZM56.763 39.8269C55.47 42.0679 53.286 43.6229 50.811 44.1869V32.7129L36 24.1599L42.023 20.6819L53.394 27.2459C57.79 29.7859 59.302 35.4289 56.763 39.8249V39.8269Z" fill="#242424"/>
</svg>
