<svg width="64" height="64" viewBox="0 0 64 64" fill="none" xmlns="http://www.w3.org/2000/svg">
<path d="M16 35H9C8.44772 35 8 35.4477 8 36V51C8 51.5523 8.44772 52 9 52H16C16.5523 52 17 51.5523 17 51V36C17 35.4477 16.5523 35 16 35Z" fill="#242424"/>
<path d="M55 35H21C20.4477 35 20 35.4477 20 36V51C20 51.5523 20.4477 52 21 52H55C55.5523 52 56 51.5523 56 51V36C56 35.4477 55.5523 35 55 35Z" fill="#242424"/>
<path d="M55 24H9C8.44772 24 8 24.4477 8 25V31C8 31.5523 8.44772 32 9 32H55C55.5523 32 56 31.5523 56 31V25C56 24.4477 55.5523 24 55 24Z" fill="#242424"/>
<path d="M56 6H8C4.691 6 2 8.691 2 12V52C2 55.309 4.691 58 8 58H56C59.309 58 62 55.309 62 52V12C62 8.691 59.309 6 56 6ZM18 11C19.105 11 20 11.895 20 13C20 14.105 19.105 15 18 15C16.895 15 16 14.105 16 13C16 11.895 16.895 11 18 11ZM10 11C11.105 11 12 11.895 12 13C12 14.105 11.105 15 10 15C8.895 15 8 14.105 8 13C8 11.895 8.895 11 10 11ZM60 52C60 54.206 58.206 56 56 56H8C5.794 56 4 54.206 4 52V20H60V52Z" fill="#242424"/>
</svg>
