<svg width="270" height="99" viewBox="0 0 270 99" fill="none" xmlns="http://www.w3.org/2000/svg">
<rect x="0.5" y="0.5" width="269" height="98" fill="white" stroke="#DADADA"/>
<g clip-path="url(#clip0_267_2592)">
<path fill-rule="evenodd" clip-rule="evenodd" d="M59.5557 41.6853C57.9112 40.5865 55.9778 40 54 40V30C57.9556 30 61.8224 31.173 65.1114 33.3706C68.4004 35.5682 70.9638 38.6918 72.4776 42.3463C73.9913 46.0008 74.3874 50.0222 73.6157 53.9018C72.844 57.7814 70.9392 61.3451 68.1421 64.1421C65.3451 66.9392 61.7814 68.844 57.9018 69.6157C54.0222 70.3874 50.0008 69.9913 46.3463 68.4776C42.6918 66.9638 39.5682 64.4004 37.3706 61.1114C35.173 57.8224 34 53.9556 34 50H44C44 51.9778 44.5865 53.9112 45.6853 55.5557C46.7841 57.2002 48.3459 58.4819 50.1732 59.2388C52.0004 59.9957 54.0111 60.1937 55.9509 59.8078C57.8907 59.422 59.6725 58.4696 61.0711 57.0711C62.4696 55.6725 63.422 53.8907 63.8078 51.9509C64.1937 50.0111 63.9957 48.0004 63.2388 46.1732C62.4819 44.3459 61.2002 42.7841 59.5557 41.6853Z" fill="#007DFC"/>
<path fill-rule="evenodd" clip-rule="evenodd" d="M44 30C44 31.3132 43.7413 32.6136 43.2388 33.8268C42.7362 35.0401 41.9997 36.1425 41.0711 37.0711C40.1425 37.9997 39.0401 38.7363 37.8268 39.2388C36.6136 39.7413 35.3132 40 34 40L34 50C36.6264 50 39.2272 49.4827 41.6537 48.4776C44.0802 47.4725 46.285 45.9993 48.1421 44.1421C49.9993 42.285 51.4725 40.0802 52.4776 37.6537C53.4827 35.2272 54 32.6264 54 30L44 30Z" fill="#007DFC"/>
<path d="M159.619 44.4525H154.767V59.8648H159.619V44.4525Z" fill="#007DFC"/>
<path d="M155.307 41.5666C155.814 42.074 156.448 42.3277 157.209 42.3277C157.97 42.3277 158.594 42.074 159.08 41.5666C159.567 41.0381 159.81 40.4038 159.81 39.6638C159.81 38.9028 159.567 38.2685 159.08 37.7611C158.594 37.2537 157.97 37 157.209 37C156.448 37 155.814 37.2537 155.307 37.7611C154.82 38.2685 154.577 38.9028 154.577 39.6638C154.577 40.4038 154.82 41.0381 155.307 41.5666Z" fill="#007DFC"/>
<path d="M85.1562 59.8648V37.4757H90.1352V55.4885H100.061V59.8648H85.1562Z" fill="#007DFC"/>
<path fill-rule="evenodd" clip-rule="evenodd" d="M109.027 60.2136C107.442 60.2136 106.004 59.8648 104.715 59.1671C103.446 58.4483 102.442 57.4758 101.702 56.2495C100.962 55.0233 100.592 53.6491 100.592 52.1269C100.592 50.6047 100.962 49.2411 101.702 48.036C102.442 46.8309 103.446 45.8795 104.715 45.1819C105.983 44.463 107.421 44.1036 109.027 44.1036C110.634 44.1036 112.072 44.4525 113.34 45.1501C114.609 45.8478 115.613 46.8098 116.353 48.036C117.093 49.2411 117.463 50.6047 117.463 52.1269C117.463 53.6491 117.093 55.0233 116.353 56.2495C115.613 57.4758 114.609 58.4483 113.34 59.1671C112.072 59.8648 110.634 60.2136 109.027 60.2136ZM109.027 55.8056C109.725 55.8056 110.338 55.6576 110.867 55.3616C111.395 55.0445 111.797 54.6111 112.072 54.0614C112.368 53.4906 112.516 52.8457 112.516 52.1269C112.516 51.4081 112.368 50.7844 112.072 50.2559C111.776 49.7062 111.364 49.2834 110.835 48.9874C110.328 48.6702 109.725 48.5117 109.027 48.5117C108.351 48.5117 107.748 48.6702 107.22 48.9874C106.691 49.2834 106.279 49.7062 105.983 50.2559C105.687 50.8056 105.539 51.4398 105.539 52.1586C105.539 52.8563 105.687 53.4906 105.983 54.0614C106.279 54.6111 106.691 55.0445 107.22 55.3616C107.748 55.6576 108.351 55.8056 109.027 55.8056Z" fill="#007DFC"/>
<path fill-rule="evenodd" clip-rule="evenodd" d="M121.306 65.8902C122.595 66.4821 124.086 66.7781 125.777 66.7781C127.426 66.7781 128.896 66.4504 130.185 65.795C131.475 65.1396 132.49 64.2306 133.23 63.0678C133.97 61.905 134.34 60.5308 134.34 58.9451V44.4525H129.583V45.488C129.229 45.1902 128.827 44.9402 128.378 44.7379C127.553 44.3362 126.612 44.1353 125.555 44.1353C124.139 44.1353 122.881 44.4736 121.781 45.1501C120.682 45.8055 119.815 46.7146 119.181 47.8774C118.547 49.0191 118.23 50.3087 118.23 51.7464C118.23 53.1629 118.547 54.4525 119.181 55.6153C119.815 56.7781 120.682 57.6978 121.781 58.3743C122.881 59.0508 124.139 59.3891 125.555 59.3891C126.591 59.3891 127.532 59.1883 128.378 58.7866C128.787 58.592 129.157 58.3627 129.488 58.0986V59.072C129.488 60.1502 129.139 60.9853 128.441 61.5773C127.765 62.1693 126.824 62.4652 125.619 62.4652C124.646 62.4652 123.811 62.2961 123.113 61.9578C122.437 61.6196 121.824 61.1227 121.274 60.4673L118.293 63.4483C119.033 64.5054 120.037 65.3194 121.306 65.8902ZM128.219 54.6322C127.733 54.9282 127.151 55.0762 126.475 55.0762C125.798 55.0762 125.206 54.9282 124.699 54.6322C124.213 54.3362 123.832 53.9345 123.557 53.4271C123.282 52.8986 123.145 52.3383 123.145 51.7464C123.145 51.1121 123.282 50.5413 123.557 50.0339C123.832 49.5265 124.223 49.1248 124.731 48.8288C125.238 48.5328 125.819 48.3848 126.475 48.3848C127.151 48.3848 127.733 48.5328 128.219 48.8288C128.726 49.1248 129.107 49.5265 129.361 50.0339C129.636 50.5413 129.773 51.1121 129.773 51.7464C129.773 52.3806 129.636 52.9514 129.361 53.4588C129.107 53.9451 128.726 54.3362 128.219 54.6322Z" fill="#007DFC"/>
<path fill-rule="evenodd" clip-rule="evenodd" d="M144.551 60.2136C142.965 60.2136 141.527 59.8648 140.238 59.1671C138.969 58.4483 137.965 57.4758 137.225 56.2495C136.485 55.0233 136.115 53.6491 136.115 52.1269C136.115 50.6047 136.485 49.2411 137.225 48.036C137.965 46.8309 138.969 45.8795 140.238 45.1819C141.506 44.463 142.944 44.1036 144.551 44.1036C146.157 44.1036 147.595 44.4525 148.863 45.1501C150.132 45.8478 151.136 46.8098 151.876 48.036C152.616 49.2411 152.986 50.6047 152.986 52.1269C152.986 53.6491 152.616 55.0233 151.876 56.2495C151.136 57.4758 150.132 58.4483 148.863 59.1671C147.595 59.8648 146.157 60.2136 144.551 60.2136ZM144.551 55.8056C145.248 55.8056 145.861 55.6576 146.39 55.3616C146.918 55.0445 147.32 54.6111 147.595 54.0614C147.891 53.4906 148.039 52.8457 148.039 52.1269C148.039 51.4081 147.891 50.7844 147.595 50.2559C147.299 49.7062 146.887 49.2834 146.358 48.9874C145.851 48.6702 145.248 48.5117 144.551 48.5117C143.874 48.5117 143.271 48.6702 142.743 48.9874C142.214 49.2834 141.802 49.7062 141.506 50.2559C141.21 50.8056 141.062 51.4398 141.062 52.1586C141.062 52.8563 141.21 53.4906 141.506 54.0614C141.802 54.6111 142.214 55.0445 142.743 55.3616C143.271 55.6576 143.874 55.8056 144.551 55.8056Z" fill="#007DFC"/>
<path fill-rule="evenodd" clip-rule="evenodd" d="M171.281 60.1819C170.246 60.1819 169.294 59.9811 168.427 59.5794C167.971 59.368 167.559 59.1156 167.191 58.8222V66.3659H162.402V44.4525H167.254V45.5162C167.606 45.2283 167.997 44.9794 168.427 44.7696C169.294 44.3467 170.246 44.1353 171.281 44.1353C172.74 44.1353 174.03 44.4842 175.15 45.1819C176.292 45.8795 177.18 46.8309 177.814 48.036C178.47 49.2411 178.797 50.6153 178.797 52.1586C178.797 53.702 178.47 55.0762 177.814 56.2813C177.18 57.4864 176.292 58.4377 175.15 59.1354C174.03 59.8331 172.74 60.1819 171.281 60.1819ZM170.394 55.8056C171.091 55.8056 171.694 55.647 172.201 55.3299C172.73 55.0128 173.142 54.5793 173.438 54.0297C173.734 53.48 173.882 52.8563 173.882 52.1586C173.882 51.4398 173.734 50.8056 173.438 50.2559C173.142 49.7062 172.73 49.2834 172.201 48.9874C171.694 48.6702 171.102 48.5117 170.425 48.5117C169.749 48.5117 169.146 48.6702 168.618 48.9874C168.11 49.2834 167.709 49.7062 167.413 50.2559C167.117 50.8056 166.969 51.4398 166.969 52.1586C166.969 52.8563 167.106 53.48 167.381 54.0297C167.677 54.5793 168.089 55.0128 168.618 55.3299C169.146 55.647 169.738 55.8056 170.394 55.8056Z" fill="#007DFC"/>
<path d="M183.546 59.8965C184.434 60.1291 185.332 60.2453 186.241 60.2453C188.165 60.2453 189.687 59.8014 190.808 58.9134C191.949 58.0255 192.52 56.831 192.52 55.3299C192.52 54.3574 192.341 53.5751 191.981 52.9832C191.622 52.3701 191.157 51.8838 190.586 51.5244C190.015 51.165 189.412 50.8795 188.778 50.6681C188.144 50.4567 187.541 50.277 186.971 50.129C186.4 49.981 185.935 49.8119 185.575 49.6216C185.216 49.4313 185.036 49.1776 185.036 48.8605C185.036 48.5645 185.174 48.3425 185.448 48.1945C185.723 48.0254 186.135 47.9409 186.685 47.9409C187.256 47.9409 187.837 48.0571 188.429 48.2897C189.042 48.5222 189.592 48.924 190.078 49.4948L192.837 46.7041C192.14 45.8161 191.231 45.1501 190.11 44.7062C189.011 44.2411 187.806 44.0085 186.495 44.0085C185.248 44.0085 184.159 44.2199 183.229 44.6427C182.298 45.0656 181.579 45.647 181.072 46.3869C180.565 47.1057 180.311 47.962 180.311 48.9557C180.311 49.8859 180.491 50.6576 180.85 51.2707C181.209 51.8626 181.675 52.3278 182.245 52.666C182.816 53.0043 183.419 53.2686 184.053 53.4588C184.687 53.6491 185.29 53.8288 185.861 53.998C186.431 54.146 186.897 54.3257 187.256 54.5371C187.637 54.7274 187.827 55.0128 187.827 55.3933C187.827 55.6893 187.668 55.9218 187.351 56.091C187.055 56.2601 186.622 56.3447 186.051 56.3447C185.226 56.3447 184.465 56.1967 183.768 55.9007C183.07 55.5836 182.467 55.1502 181.96 54.6005L179.201 57.3912C179.73 57.962 180.364 58.4695 181.104 58.9134C181.865 59.3362 182.679 59.6639 183.546 59.8965Z" fill="#007DFC"/>
<path d="M201.368 60.2136C199.952 60.2136 198.694 59.9282 197.595 59.3574C196.516 58.7654 195.671 57.962 195.058 56.9472C194.444 55.9113 194.138 54.7274 194.138 53.3954V44.4525H198.99V53.332C198.99 53.8605 199.074 54.3151 199.244 54.6956C199.434 55.0762 199.709 55.3722 200.068 55.5836C200.428 55.795 200.861 55.9007 201.368 55.9007C202.087 55.9007 202.658 55.6787 203.081 55.2347C203.504 54.7696 203.715 54.1354 203.715 53.332V44.4525H208.567V53.3637C208.567 54.7168 208.261 55.9113 207.647 56.9472C207.034 57.962 206.189 58.7654 205.11 59.3574C204.032 59.9282 202.785 60.2136 201.368 60.2136Z" fill="#007DFC"/>
<path d="M215.831 44.4525H210.979V59.8648H215.831V50.8584C215.831 50.3299 215.937 49.8859 216.148 49.5265C216.381 49.1671 216.688 48.8922 217.068 48.702C217.449 48.4905 217.882 48.3848 218.368 48.3848C219.066 48.3848 219.647 48.6068 220.112 49.0508C220.599 49.4736 220.842 50.0762 220.842 50.8584V59.8648H225.694V50.8584C225.694 50.3299 225.8 49.8859 226.011 49.5265C226.244 49.1671 226.55 48.8922 226.931 48.702C227.311 48.4905 227.745 48.3848 228.231 48.3848C228.929 48.3848 229.51 48.6068 229.975 49.0508C230.461 49.4736 230.704 50.0762 230.704 50.8584V59.8648H235.557V50.3193C235.557 49.0297 235.282 47.9303 234.732 47.0212C234.203 46.0909 233.474 45.3827 232.544 44.8965C231.635 44.389 230.588 44.1353 229.404 44.1353C228.199 44.1353 227.11 44.3996 226.138 44.9282C225.506 45.2649 224.954 45.6995 224.481 46.2319C224.04 45.675 223.504 45.2193 222.871 44.8647C222.026 44.3785 221.064 44.1353 219.986 44.1353C218.844 44.1353 217.819 44.3785 216.91 44.8647C216.514 45.067 216.155 45.3093 215.831 45.5916V44.4525Z" fill="#007DFC"/>
</g>
<defs>
<clipPath id="clip0_267_2592">
<rect width="202" height="40" fill="white" transform="translate(34 30)"/>
</clipPath>
</defs>
</svg>
