<svg width="270" height="99" viewBox="0 0 270 99" fill="none" xmlns="http://www.w3.org/2000/svg">
<rect x="0.5" y="0.5" width="269" height="98" fill="white" stroke="#DADADA"/>
<g clip-path="url(#clip0_267_2607)">
<path d="M170.994 44.2262C171.002 44.1706 171.002 44.1144 170.994 44.0588C171.002 44.0135 171.002 43.9673 170.994 43.9219L170.461 40.0117C170.384 39.5439 170.178 39.1067 169.867 38.7489L169.775 38.6424L169.608 38.475L160.374 30.5329L160.633 30.7916C160.421 30.5384 160.155 30.3359 159.854 30.199C159.554 30.062 159.226 29.9942 158.896 30.0004H156.092C155.636 29.9914 155.191 30.1361 154.828 30.4112C154.446 30.1378 153.987 29.9938 153.517 30.0004H150.714C150.346 29.9944 149.983 30.0856 149.662 30.2646C149.341 30.4436 149.073 30.7041 148.885 31.0198C148.596 31.4707 148.487 32.0139 148.58 32.5413L148.931 35.006C148.699 34.8746 148.436 34.8064 148.169 34.8083H134.592C134.105 34.8113 133.63 34.9539 133.221 35.219C132.826 35.4659 132.509 35.8193 132.307 36.2384L131.256 35.3408C130.842 34.9585 130.295 34.7512 129.732 34.7626H108.43C107.941 34.7715 107.463 34.9079 107.044 35.1582C106.469 35.4938 106.048 36.0395 105.87 36.6797L99.1049 59.2736C98.9785 59.6459 98.966 60.0474 99.0692 60.4268C99.1723 60.8061 99.3863 61.1463 99.6839 61.4037C99.7614 61.4693 99.8429 61.5303 99.9277 61.5862C99.9277 61.5862 99.7905 61.4949 99.7144 61.4189L108.948 69.3762C109.339 69.7353 109.849 69.936 110.38 69.9391H131.85C132.34 69.9264 132.818 69.7847 133.236 69.5283C133.473 69.3993 133.684 69.2293 133.861 69.0262L133.937 68.9197L134.059 68.7676L134.151 68.6002L135.156 69.4675C135.541 69.8123 136.041 70.002 136.558 70H158.073C158.563 69.9837 159.04 69.8423 159.46 69.5892C159.691 69.4523 159.901 69.2832 160.084 69.0871L160.161 68.9806L160.283 68.8285C160.347 68.7322 160.403 68.6304 160.45 68.5241C160.5 68.4319 160.541 68.3351 160.572 68.2351L166.743 47.6039V47.4213C166.751 47.3505 166.751 47.2791 166.743 47.2083V47.0714C166.751 47.026 166.751 46.9798 166.743 46.9344C166.75 46.8382 166.75 46.7416 166.743 46.6453H168.724C168.896 46.6611 169.07 46.6611 169.242 46.6453H169.379C169.491 46.6121 169.598 46.5661 169.699 46.5084H169.852L170.126 46.2954L170.248 46.2041L170.461 45.9302V45.839L170.613 45.5803C170.605 45.53 170.605 45.4785 170.613 45.4282C170.605 45.4035 170.605 45.3768 170.613 45.3521C170.646 45.2629 170.671 45.1713 170.69 45.0782C170.682 45.0482 170.682 45.0169 170.69 44.9869C170.682 44.9416 170.682 44.8953 170.69 44.85C170.69 44.85 170.994 44.2566 170.994 44.2262Z" fill="black"/>
<path d="M130.356 36.4971C130.437 36.5702 130.494 36.6662 130.518 36.7723C130.543 36.8784 130.534 36.9895 130.494 37.0905L123.744 59.6692C123.659 59.9157 123.485 60.1218 123.256 60.2474C123.07 60.3717 122.854 60.4451 122.631 60.4604H101.177C100.994 60.4516 100.82 60.3758 100.69 60.2474C100.612 60.1755 100.557 60.0821 100.533 59.9792C100.508 59.8762 100.515 59.7683 100.552 59.6692L107.318 37.0905C107.396 36.8409 107.564 36.6293 107.79 36.4971C107.979 36.3817 108.194 36.3139 108.415 36.2993H129.869C130.051 36.3011 130.225 36.3718 130.356 36.4971ZM119.157 55.12L123.195 41.6397H111.889L107.866 55.12H119.157ZM150.835 36.7253C150.909 36.8103 151 36.8776 151.103 36.9224C151.206 36.9672 151.317 36.9882 151.43 36.984H154.218C154.324 36.985 154.429 36.959 154.522 36.9084C154.616 36.8579 154.694 36.7844 154.751 36.6949C154.801 36.625 154.836 36.5459 154.854 36.4623C154.872 36.3786 154.874 36.2922 154.858 36.208L154.309 32.1913C154.257 32.0054 154.163 31.8338 154.035 31.6893C153.962 31.6043 153.871 31.537 153.768 31.4922C153.665 31.4474 153.553 31.4264 153.441 31.4306H150.653C150.546 31.4296 150.442 31.4556 150.348 31.5062C150.255 31.5567 150.176 31.6302 150.119 31.7197C150.013 31.9327 149.967 32.0696 150.013 32.1913L150.576 36.208C150.605 36.4036 150.696 36.5849 150.835 36.7253ZM159.688 32.1609C159.636 31.975 159.542 31.8033 159.414 31.6588C159.344 31.5742 159.255 31.5069 159.155 31.462C159.054 31.4171 158.945 31.396 158.835 31.4002H156.031C155.927 31.3972 155.824 31.4225 155.732 31.4734C155.641 31.5243 155.565 31.5989 155.513 31.6893C155.412 31.8242 155.368 31.9938 155.391 32.1609L155.955 36.1776C155.99 36.3711 156.08 36.5506 156.214 36.6949C156.289 36.7782 156.38 36.8444 156.483 36.8891C156.586 36.9337 156.696 36.9557 156.808 36.9535H159.612C159.716 36.9549 159.819 36.929 159.91 36.8782C160.001 36.8275 160.077 36.7538 160.13 36.6645C160.183 36.5964 160.22 36.5173 160.239 36.4331C160.257 36.3489 160.256 36.2616 160.237 36.1776L159.688 32.1609ZM148.382 38.2468L148.108 36.2689H134.592C134.38 36.2806 134.175 36.3489 133.998 36.4667C133.886 36.5278 133.788 36.6125 133.712 36.7149C133.636 36.8174 133.583 36.9351 133.556 37.0601L132.429 40.8333C132.384 40.9276 132.368 41.0334 132.385 41.1366C132.401 41.2398 132.448 41.3356 132.52 41.4115C132.649 41.5321 132.816 41.6024 132.993 41.6093H149.418L145.38 55.0896H129C128.789 55.0944 128.583 55.1576 128.406 55.2721C128.191 55.4088 128.033 55.6201 127.964 55.8655L126.821 59.6388C126.784 59.7356 126.774 59.8408 126.793 59.9428C126.812 60.0449 126.859 60.1397 126.928 60.2169C127.053 60.3456 127.222 60.4218 127.4 60.4299H148.915C149.138 60.4108 149.352 60.3377 149.54 60.2169C149.765 60.0907 149.934 59.8842 150.013 59.6388L156.199 39.0076H149.235C149.125 39.0097 149.015 38.9892 148.913 38.9474C148.811 38.9055 148.718 38.8431 148.641 38.7641C148.515 38.6261 148.426 38.4587 148.382 38.2772V38.2468Z" fill="white"/>
</g>
<defs>
<clipPath id="clip0_267_2607">
<rect width="72" height="40" fill="white" transform="translate(99 30)"/>
</clipPath>
</defs>
</svg>
