<svg width="270" height="99" viewBox="0 0 270 99" fill="none" xmlns="http://www.w3.org/2000/svg">
<rect x="0.5" y="0.5" width="269" height="98" fill="white" stroke="#DADADA"/>
<g clip-path="url(#clip0_267_2612)">
<path d="M217.394 37.6642L221.568 41.8668C221.714 41.9829 221.822 42.1396 221.878 42.3171C221.963 43.3515 221.18 43.4081 220.38 43.4659C220.034 43.4909 219.685 43.5162 219.402 43.621C217.998 44.0009 216.746 44.8033 215.815 45.9193C214.883 47.0353 214.318 48.4109 214.195 49.8593C214.105 50.0266 213.969 50.1643 213.802 50.2558C213.636 50.3474 213.447 50.3888 213.257 50.3753C213.037 50.3558 212.831 50.2595 212.675 50.1032L211.305 48.7238C211.315 48.8182 211.315 48.9117 211.315 48.9869V49.8968C211.315 49.9543 211.317 50.0097 211.31 50.065C211.301 50.127 211.28 50.1888 211.231 50.2532V50.3377C211.231 50.3808 211.236 50.4209 211.241 50.4616C211.251 50.5449 211.262 50.6307 211.231 50.7505C211.201 50.8622 211.198 50.9925 211.194 51.1088C211.193 51.1779 211.191 51.2421 211.184 51.2945C211.174 51.3672 211.174 51.4448 211.168 51.5223C211.162 51.5949 211.15 51.6674 211.118 51.7354C211.074 51.8306 211.059 51.9215 211.055 52.0139C211.052 52.0581 211.052 52.1026 211.052 52.1482L210.996 52.439L208.867 62.5891L208.698 63.3489L208.632 64.4559L207.694 69.2495L207.544 70H131.625L131.259 69.6341L131.193 69.9531H123.069L118.548 65.4034L118.979 63.3489H116.428L114.842 61.7448C112.875 63.1775 110.493 63.9285 108.06 63.8837C105.444 63.9866 102.894 63.0488 100.968 61.2758L98.5009 58.7899L97.9662 61.2851C97.9006 61.6416 97.8161 61.9794 97.7223 62.3077L97.6379 62.6173L97.4972 63.0675C97.4856 63.1066 97.4699 63.1444 97.4503 63.1801C97.3106 63.5937 97.1446 63.9979 96.9531 64.3902C96.9581 64.4054 96.9581 64.4219 96.9531 64.4371C96.9285 64.4891 96.9003 64.5392 96.8686 64.5872C96.727 64.8675 96.5705 65.1399 96.3996 65.4034C96.3679 65.4513 96.3397 65.5015 96.3152 65.5535L96.212 65.666C95.9827 65.9949 95.732 66.3082 95.4615 66.6041C95.3873 66.6783 95.3131 66.748 95.2377 66.8164C95.1607 66.8864 95.0825 66.9551 95.0018 67.0262L94.7955 67.2232C94.6654 67.3313 94.5323 67.4356 94.3964 67.5361C94.2843 67.619 94.1703 67.6992 94.0544 67.7767C92.1211 68.9222 89.891 69.4674 87.6473 69.3433C84.5516 69.3433 82.075 68.4427 80.5084 66.8668L76.0994 62.4296C74.3383 63.4262 72.3442 63.9377 70.3208 63.9118C67.7129 63.9925 65.1782 63.042 63.2664 61.2664L60.7993 58.7805L60.0019 62.6173L59.8424 63.3771H51.5404L47 58.7992L47.2345 57.6923L52.2252 33.7242L52.3752 32.9737H60.7054L60.9212 33.1801V32.9737H117.047L117.253 33.1801V32.9737H125.377L129.917 37.5516L129.692 38.6491L129.448 39.8499H131.784L132.15 40.2158C133.178 39.6134 134.345 39.29 135.537 39.2777C136.413 39.2604 137.283 39.4268 138.09 39.7661C138.898 40.1054 139.626 40.61 140.227 41.2476L140.105 41.1069L142.31 43.3302C143.651 40.8068 146.662 39.2777 150.752 39.2777C153.923 39.2777 156.259 40.0844 157.675 41.5478L159.27 43.152L159.805 40.5722L159.964 39.8217H168.097L170.424 42.1576L170.752 40.5816L170.912 39.8311H186.916L187.347 40.2627C188.431 39.6231 189.672 39.2982 190.931 39.3246C191.688 39.295 192.442 39.4337 193.14 39.7305C193.837 40.0273 194.46 40.475 194.964 41.0413C194.938 41.0118 194.913 40.9823 194.888 40.9533C194.843 40.8995 194.798 40.847 194.75 40.7984L195.565 41.6135C196.275 40.8782 197.129 40.2959 198.072 39.9024C199.016 39.5088 200.03 39.3121 201.052 39.3246C201.595 39.2912 202.137 39.3374 202.663 39.4603L201.775 38.5647C201.654 38.4353 201.572 38.2742 201.539 38.1002C201.506 37.9262 201.523 37.7463 201.587 37.5815C201.652 37.4166 201.762 37.2734 201.905 37.1685C202.048 37.0637 202.217 37.0013 202.394 36.9887H203.107C203.299 36.9704 203.49 36.9423 203.679 36.9043C204.676 36.6947 205.614 36.2662 206.425 35.6497C207.237 35.0332 207.901 34.2442 208.37 33.3396C208.411 33.2696 208.448 33.1977 208.482 33.1238V33.077C208.805 32.3822 209.001 31.6358 209.064 30.8724C209.08 30.6352 209.187 30.4131 209.361 30.2512C209.535 30.0892 209.764 29.9994 210.002 30H210.077C210.219 30.0135 210.357 30.0594 210.479 30.1342C210.601 30.209 210.704 30.3107 210.781 30.4315C211.456 31.0882 215.208 34.9062 215.208 34.9062C215.521 35.2424 215.498 35.6789 215.474 36.1205C215.459 36.3935 215.444 36.6686 215.508 36.9231C215.679 36.9537 215.852 36.9769 216.024 36.9926C216.19 37.0075 216.356 37.0157 216.522 37.0169C216.716 37.0209 216.905 37.0854 217.061 37.2014C217.217 37.3173 217.334 37.4791 217.394 37.6642Z" fill="black"/>
<path d="M89.9362 40.7505H95.8649L92.5441 56.5009C91.9344 59.484 90.7711 61.1914 89.0075 62.4015C87.2237 63.4366 85.1754 63.9258 83.1164 63.8086C79.1952 63.8086 75.4334 62.167 75.0582 58.1801H81.0244C81.212 59.1182 82.0751 59.6529 83.3884 59.6529C85.1614 59.6529 85.9775 58.5835 86.3434 56.9043L86.6998 55.1688H86.5685C86.045 55.7443 85.41 56.2073 84.7021 56.5298C83.9941 56.8523 83.2281 57.0276 82.4503 57.045C78.9982 57.045 76.2589 54.2964 76.3152 50.272C76.3903 45.5816 79.4484 40.2533 84.5798 40.2533C85.5522 40.1878 86.523 40.4021 87.3775 40.8709C88.232 41.3396 88.9343 42.0433 89.4015 42.8987H89.5047L89.9362 40.7505ZM84.8424 52.6454C87.122 52.6454 88.3884 50.0188 88.4259 47.758C88.4259 46.2477 87.8349 44.6998 86.0901 44.6998C83.7073 44.6998 82.4972 47.3546 82.4597 49.6341C82.4597 51.1726 83.0507 52.6454 84.7955 52.6454M151.4 53.152C151.4 54.1557 150.536 54.5591 149.401 54.5591C147.525 54.5591 146.897 53.621 146.887 52.3077H140.987C140.884 57.2045 145.255 58.4146 149.139 58.4146C154.101 58.4146 157.319 56.2664 157.385 51.9794C157.385 48.5553 154.467 47.5141 151.597 46.848C149.392 46.3415 148.426 45.9756 148.435 45.1407C148.445 44.3058 149.43 43.9681 150.396 43.9681C151.606 43.9681 152.431 44.3996 152.516 45.5066H158.248C158.182 41.4165 154.495 40.2158 150.743 40.2158C146.184 40.2158 142.629 42.2889 142.572 46.2101C142.572 49.2964 144.655 50.4315 147.797 51.2383C149.814 51.773 151.418 51.9418 151.4 53.152ZM195.236 43.2927H195.133C194.878 42.3689 194.314 41.5602 193.536 41.0005C192.758 40.4409 191.812 40.164 190.855 40.2158C188.304 40.2158 186.747 41.4822 185.274 43.3959H185.171L185.715 40.7505H179.748L176.174 57.8424H182.413L184.289 48.621C184.72 46.6135 185.743 45.2064 187.291 45.2064C188.839 45.2064 189.045 46.4446 188.726 47.955L186.662 57.8424H192.9L194.777 48.621C195.208 46.4822 196.231 45.2064 197.778 45.2064C199.326 45.2064 199.533 46.379 199.214 47.955L197.15 57.8424H203.388L205.621 47.6829C206.559 43.3959 205.124 40.1782 201.006 40.1782C199.86 40.1735 198.732 40.4561 197.724 41.0002C196.716 41.5443 195.861 42.3325 195.236 43.2927ZM48.1445 57.8424H54.5892L59.5704 33.8743H53.1352L48.1445 57.8424ZM67.5441 40.2439C71.8968 40.2439 76.0526 42.6266 75.9869 48.0206C75.9306 53.9212 71.9156 58.3396 65.7805 58.3396C61.5591 58.3396 57.3378 55.9944 57.4128 50.6285C57.516 44.8687 61.4747 40.2439 67.5441 40.2439ZM65.9588 54.1557C68.7074 54.1557 69.7111 50.1688 69.7111 47.8236C69.7111 46.1445 69.1952 44.5028 67.3846 44.5028C64.6642 44.5028 63.7355 48.7242 63.7355 50.9006C63.7355 52.6454 64.2233 54.1557 65.9963 54.1557M61.7186 33.8743L60.7805 38.6679H114.899L115.837 33.8743H61.7186ZM105.246 40.2439C109.599 40.2439 113.754 42.6266 113.689 48.0206C113.632 53.9212 109.608 58.3396 103.473 58.3396C99.2514 58.3396 95.03 55.9944 95.1145 50.6285C95.2458 44.8687 99.2045 40.2439 105.246 40.2439ZM103.689 54.1557C106.437 54.1557 107.441 50.1688 107.441 47.8236C107.441 46.1445 106.916 44.5028 105.105 44.5028C102.394 44.5028 101.456 48.7242 101.456 50.9006C101.456 52.6454 101.944 54.1557 103.726 54.1557M118.051 33.8743L117.113 38.6679H123.342L124.28 33.8743H118.051ZM113.06 57.8424H119.298L122.872 40.7505H116.597L113.06 57.8424ZM132.966 58.4146C131.973 58.4851 130.981 58.2776 130.099 57.8153C129.217 57.353 128.482 56.6542 127.976 55.7974H127.872L125.996 64.4465H119.683L124.749 40.7505H130.677L130.208 43.03C130.827 42.188 131.629 41.4973 132.554 41.0098C133.478 40.5224 134.501 40.2509 135.546 40.2158C139.298 40.2158 141.503 43.4334 141.437 47.6173C141.353 52.8799 138.623 58.4146 132.929 58.4146H132.966ZM132.722 45.0563C130.312 45.0563 128.829 48.1426 128.792 50.516C128.792 52.167 129.373 54.0056 131.353 54.0056C133.933 54.0056 134.993 50.591 135.021 48.3114C135.021 46.7636 134.57 45.0563 132.722 45.0563ZM168.792 55.1501H168.895L168.351 57.8612H174.279L177.854 40.7692H171.625L169.636 50.3189C169.233 52.2983 168.013 53.3396 166.475 53.3396C164.936 53.3396 164.598 51.8949 164.908 50.3846L166.925 40.7692H160.696L158.491 51.3227C157.553 55.9193 159.692 58.3959 163.276 58.3959C164.401 58.3849 165.504 58.0774 166.472 57.5042C167.44 56.931 168.241 56.1125 168.792 55.1313V55.1501ZM202.253 64.531L203.191 59.7373H129.214L128.276 64.531H202.253Z" fill="white"/>
<path d="M208.96 45.4409C208.899 45.4362 208.839 45.4193 208.784 45.3912C208.728 45.3632 208.679 45.3245 208.639 45.2774C208.599 45.2303 208.569 45.1758 208.55 45.1169C208.531 45.058 208.524 44.996 208.529 44.9343C208.607 44.0989 208.508 43.2563 208.238 42.4619C207.968 41.6675 207.533 40.939 206.961 40.3244C206.39 39.7098 205.695 39.2227 204.923 38.8952C204.15 38.5677 203.317 38.4072 202.478 38.424C202.354 38.424 202.235 38.3746 202.147 38.2866C202.059 38.1987 202.009 38.0794 202.009 37.955C202.009 37.8306 202.059 37.7113 202.147 37.6233C202.235 37.5354 202.354 37.4859 202.478 37.4859C202.703 37.5005 202.929 37.5005 203.154 37.4859C204.82 37.3084 206.372 36.5556 207.543 35.3571C208.715 34.1586 209.431 32.5893 209.57 30.9193C209.58 30.8016 209.633 30.6917 209.72 30.6117C209.807 30.5317 209.921 30.4874 210.039 30.4878C210.101 30.4926 210.161 30.5094 210.216 30.5375C210.271 30.5656 210.32 30.6043 210.36 30.6513C210.401 30.6984 210.431 30.753 210.45 30.8118C210.469 30.8707 210.476 30.9328 210.471 30.9944C210.393 31.829 210.492 32.6708 210.761 33.4646C211.031 34.2584 211.465 34.9863 212.035 35.6008C212.606 36.2153 213.299 36.7025 214.07 37.0306C214.842 37.3587 215.674 37.5202 216.512 37.5047C216.636 37.5047 216.756 37.5541 216.844 37.6421C216.932 37.73 216.981 37.8493 216.981 37.9738C216.981 38.0982 216.932 38.2175 216.844 38.3054C216.756 38.3934 216.636 38.4428 216.512 38.4428C214.73 38.4722 213.021 39.1588 211.714 40.3707C210.407 41.5826 209.593 43.2345 209.43 45.0094C209.42 45.1272 209.367 45.2371 209.28 45.3171C209.193 45.3971 209.079 45.4413 208.96 45.4409Z" fill="white"/>
</g>
<defs>
<clipPath id="clip0_267_2612">
<rect width="175" height="40" fill="white" transform="translate(47 30)"/>
</clipPath>
</defs>
</svg>
