<svg width="270" height="99" viewBox="0 0 270 99" fill="none" xmlns="http://www.w3.org/2000/svg">
<rect x="0.5" y="0.5" width="269" height="98" fill="white" stroke="#DADADA"/>
<g clip-path="url(#clip0_267_2618)">
<path d="M101.86 57.138H113.812V53.538H106.108V39.978H101.86V57.138Z" fill="#340E0E"/>
<path d="M120.893 54.738C119.189 54.738 118.301 53.25 118.301 51.018C118.301 48.786 119.189 47.274 120.893 47.274C122.597 47.274 123.509 48.786 123.509 51.018C123.509 53.25 122.597 54.738 120.893 54.738ZM120.917 57.522C124.877 57.522 127.469 54.714 127.469 51.018C127.469 47.322 124.877 44.514 120.917 44.514C116.981 44.514 114.341 47.322 114.341 51.018C114.341 54.714 116.981 57.522 120.917 57.522Z" fill="#340E0E"/>
<path d="M134.324 61.386C136.148 61.386 137.756 60.978 138.836 60.018C139.82 59.13 140.468 57.786 140.468 55.938V44.85H136.724V46.17H136.676C135.956 45.138 134.852 44.49 133.22 44.49C130.172 44.49 128.06 47.034 128.06 50.634C128.06 54.402 130.628 56.466 133.388 56.466C134.876 56.466 135.812 55.866 136.532 55.05H136.628V56.274C136.628 57.762 135.932 58.626 134.276 58.626C132.98 58.626 132.332 58.074 132.116 57.426H128.324C128.708 59.994 130.94 61.386 134.324 61.386ZM134.3 53.562C132.836 53.562 131.876 52.362 131.876 50.514C131.876 48.642 132.836 47.442 134.3 47.442C135.932 47.442 136.796 48.834 136.796 50.49C136.796 52.218 136.004 53.562 134.3 53.562Z" fill="#340E0E"/>
<path d="M148.166 54.738C146.462 54.738 145.574 53.25 145.574 51.018C145.574 48.786 146.462 47.274 148.166 47.274C149.87 47.274 150.782 48.786 150.782 51.018C150.782 53.25 149.87 54.738 148.166 54.738ZM148.19 57.522C152.15 57.522 154.742 54.714 154.742 51.018C154.742 47.322 152.15 44.514 148.19 44.514C144.254 44.514 141.614 47.322 141.614 51.018C141.614 54.714 144.254 57.522 148.19 57.522Z" fill="#340E0E"/>
<path d="M155.884 57.138H159.796V44.85H155.884V57.138ZM155.884 43.146H159.796V39.978H155.884V43.146Z" fill="#340E0E"/>
<path d="M161.494 61.194H165.406V55.866H165.454C166.222 56.898 167.35 57.522 168.934 57.522C172.15 57.522 174.286 54.978 174.286 50.994C174.286 47.298 172.294 44.49 169.03 44.49C167.35 44.49 166.15 45.234 165.31 46.338H165.238V44.85H161.494V61.194ZM167.926 54.498C166.246 54.498 165.286 53.13 165.286 51.138C165.286 49.146 166.15 47.634 167.854 47.634C169.534 47.634 170.326 49.026 170.326 51.138C170.326 53.226 169.414 54.498 167.926 54.498Z" fill="#340E0E"/>
<path d="M180.655 57.522C183.871 57.522 186.247 56.13 186.247 53.442C186.247 50.298 183.703 49.746 181.543 49.386C179.983 49.098 178.591 48.978 178.591 48.114C178.591 47.346 179.335 46.986 180.295 46.986C181.375 46.986 182.119 47.322 182.263 48.426H185.863C185.671 46.002 183.799 44.49 180.319 44.49C177.415 44.49 175.015 45.834 175.015 48.426C175.015 51.306 177.295 51.882 179.431 52.242C181.063 52.53 182.551 52.65 182.551 53.754C182.551 54.546 181.807 54.978 180.631 54.978C179.335 54.978 178.519 54.378 178.375 53.154H174.679C174.799 55.866 177.055 57.522 180.655 57.522Z" fill="#340E0E"/>
<path d="M191.561 57.498C193.265 57.498 194.345 56.826 195.233 55.626H195.305V57.138H199.049V44.85H195.137V51.714C195.137 53.178 194.321 54.186 192.977 54.186C191.729 54.186 191.129 53.442 191.129 52.098V44.85H187.241V52.914C187.241 55.65 188.729 57.498 191.561 57.498Z" fill="#340E0E"/>
<path d="M200.75 57.138H204.662V50.25C204.662 48.786 205.382 47.754 206.606 47.754C207.782 47.754 208.334 48.522 208.334 49.842V57.138H212.246V50.25C212.246 48.786 212.942 47.754 214.19 47.754C215.366 47.754 215.918 48.522 215.918 49.842V57.138H219.83V49.146C219.83 46.386 218.438 44.49 215.654 44.49C214.07 44.49 212.75 45.162 211.79 46.65H211.742C211.118 45.33 209.894 44.49 208.286 44.49C206.51 44.49 205.334 45.33 204.566 46.602H204.494V44.85H200.75V57.138Z" fill="#340E0E"/>
<path fill-rule="evenodd" clip-rule="evenodd" d="M70.6841 69.138C81.7298 69.138 90.6841 60.1837 90.6841 49.138C90.6841 38.0923 81.7298 29.138 70.6841 29.138C59.6384 29.138 50.6841 38.0923 50.6841 49.138C50.6841 60.1837 59.6384 69.138 70.6841 69.138ZM76.9234 38.4549C77.2271 37.3761 76.1802 36.7382 75.2241 37.4193L61.8772 46.9276C60.8403 47.6663 61.0034 49.138 62.1222 49.138H65.6368V49.1108H72.4866L66.9053 51.0801L64.4448 59.8212C64.1411 60.9 65.1879 61.5379 66.1441 60.8567L79.491 51.3485C80.5279 50.6098 80.3647 49.138 79.246 49.138H73.9162L76.9234 38.4549Z" fill="#F15757"/>
</g>
<defs>
<clipPath id="clip0_267_2618">
<rect width="170" height="41" fill="white" transform="translate(50 29)"/>
</clipPath>
</defs>
</svg>
