<svg width="270" height="99" viewBox="0 0 270 99" fill="none" xmlns="http://www.w3.org/2000/svg">
<rect x="0.5" y="0.5" width="269" height="98" fill="white" stroke="#DADADA"/>
<g clip-path="url(#clip0_267_2631)">
<path fill-rule="evenodd" clip-rule="evenodd" d="M101.037 31.7287C101.037 30.3393 102.176 29.213 103.581 29.213H108.011C109.011 29.213 109.98 29.5557 110.753 30.1827L112.101 31.276L112.134 31.3064C112.165 31.296 112.196 31.2859 112.228 31.276C114.659 30.5056 117.609 30.3591 120.621 30.3591C123.632 30.3591 126.582 30.5056 129.013 31.276C129.045 31.2859 129.076 31.296 129.107 31.3064L129.141 31.276L130.488 30.1827C131.261 29.5557 132.23 29.213 133.23 29.213H137.661C139.065 29.213 140.204 30.3393 140.204 31.7287V33.2839C140.204 34.4871 139.691 35.6347 138.792 36.4451L137.705 37.4251C137.174 37.9035 136.537 38.2517 135.845 38.4415L135.588 38.5121C136.595 40.89 137.152 43.4318 137.152 45.488C137.152 53.7594 131.978 57.3317 127.419 60.4793C123.829 62.9581 120.621 65.1734 120.621 69.213C120.621 65.1734 117.412 62.9581 113.822 60.4793C109.263 57.3317 104.089 53.7594 104.089 45.488C104.089 43.4318 104.646 40.89 105.653 38.5121L105.396 38.4415C104.704 38.2517 104.067 37.9035 103.536 37.4251L102.449 36.4451C101.55 35.6347 101.037 34.4871 101.037 33.2839V31.7287ZM123.927 52.2502C123.927 52.6454 123.753 53.0243 123.443 53.3038C123.133 53.5832 122.712 53.7402 122.274 53.7402C121.895 53.7402 121.53 53.6231 121.238 53.4113C121.735 54.7283 123.008 55.9762 124.944 53.9694C126.653 52.1047 124.868 48.1718 123.129 45.838C122.549 45.0601 121.598 44.6857 120.621 44.6857C119.644 44.6857 118.692 45.0601 118.112 45.838C116.373 48.1718 114.588 52.1047 116.297 53.9694C118.233 55.9762 119.506 54.7283 120.003 53.4113C119.711 53.6231 119.346 53.7402 118.967 53.7402C118.529 53.7402 118.108 53.5832 117.798 53.3038C117.488 53.0243 117.314 52.6454 117.314 52.2502H123.927ZM114.29 40.6081H109.684L113.314 43.4828C114.113 44.1153 115.28 43.9131 115.774 43.0566C116.398 41.9752 115.569 40.6081 114.29 40.6081ZM126.951 40.6081H131.557L127.927 43.4828C127.128 44.1153 125.961 43.9131 125.467 43.0566C124.843 41.9752 125.672 40.6081 126.951 40.6081Z" fill="#72B800"/>
<path d="M145.69 57.5463H149.77V42.1563H145.69V57.5463ZM145.69 39.7563H149.77V36.0963H145.69V39.7563Z" fill="#355030"/>
<path d="M152.399 62.5863H156.479V55.8063H156.539C157.409 57.1263 158.819 57.9963 160.979 57.9963C164.939 57.9963 167.639 54.8463 167.639 49.8663C167.639 45.0663 165.029 41.7363 160.949 41.7363C158.849 41.7363 157.409 42.7263 156.419 44.0763H156.329V42.1563H152.399V62.5863ZM160.109 54.6063C157.679 54.6063 156.389 52.7763 156.389 49.9863C156.389 47.2263 157.409 45.0363 159.959 45.0363C162.479 45.0363 163.499 47.0763 163.499 49.9863C163.499 52.8963 162.179 54.6063 160.109 54.6063Z" fill="#355030"/>
<path d="M175.778 57.9963C179.618 57.9963 182.258 56.1363 182.258 53.0463C182.258 49.4463 179.408 48.7263 176.828 48.1863C174.638 47.7363 172.598 47.6163 172.598 46.2963C172.598 45.1863 173.648 44.5863 175.238 44.5863C176.978 44.5863 178.028 45.1863 178.208 46.8363H181.898C181.598 43.7463 179.348 41.7363 175.298 41.7363C171.788 41.7363 169.028 43.3263 169.028 46.6563C169.028 50.0163 171.728 50.7663 174.488 51.3063C176.588 51.7263 178.538 51.8763 178.538 53.3463C178.538 54.4263 177.518 55.1163 175.718 55.1163C173.888 55.1163 172.628 54.3363 172.358 52.5663H168.578C168.818 55.8363 171.308 57.9963 175.778 57.9963Z" fill="#355030"/>
<path d="M197.749 57.5463V42.1563H193.669V51.0363C193.669 53.0763 192.499 54.5163 190.579 54.5163C188.839 54.5163 188.029 53.5263 188.029 51.7263V42.1563H183.979V52.4163C183.979 55.7763 185.899 57.9663 189.319 57.9663C191.479 57.9663 192.679 57.1563 193.729 55.7463H193.819V57.5463H197.749Z" fill="#355030"/>
<path d="M200.388 57.5463H204.468V48.6063C204.468 46.5663 205.578 45.2463 207.228 45.2463C208.728 45.2463 209.598 46.1463 209.598 47.8863V57.5463H213.678V48.6063C213.678 46.5663 214.728 45.2463 216.438 45.2463C217.938 45.2463 218.808 46.1463 218.808 47.8863V57.5463H222.888V47.1963C222.888 43.8363 221.058 41.7363 217.818 41.7363C215.868 41.7363 214.248 42.7563 213.198 44.4363H213.138C212.388 42.8163 210.828 41.7363 208.878 41.7363C206.748 41.7363 205.248 42.8163 204.408 44.2263H204.318V42.1563H200.388V57.5463Z" fill="#355030"/>
<path d="M42.6841 57.5463H46.7641V36.0963H42.6841V57.5463Z" fill="#355030"/>
<path d="M56.7402 57.9963C61.5102 57.9963 64.7802 54.4563 64.7802 49.8663C64.7802 45.2763 61.5102 41.7363 56.7402 41.7363C51.9702 41.7363 48.7002 45.2763 48.7002 49.8663C48.7002 54.4563 51.9702 57.9963 56.7402 57.9963ZM56.7402 54.8763C54.2202 54.8763 52.8402 52.8663 52.8402 49.8663C52.8402 46.8663 54.2202 44.8263 56.7402 44.8263C59.2302 44.8263 60.6402 46.8663 60.6402 49.8663C60.6402 52.8663 59.2302 54.8763 56.7402 54.8763Z" fill="#355030"/>
<path d="M73.4568 62.7963C75.7368 62.7963 77.7168 62.2563 79.0068 61.0563C80.1468 60.0063 80.8368 58.5363 80.8368 56.3763V42.1563H76.9068V43.7763H76.8468C75.9168 42.4863 74.5068 41.7363 72.5868 41.7363C68.6868 41.7363 65.9268 44.6763 65.9268 49.2663C65.9268 53.9163 69.2868 56.6163 72.7068 56.6163C74.6568 56.6163 75.8268 55.8363 76.7268 54.8163H76.8168V56.4963C76.8168 58.5963 75.7068 59.7063 73.3968 59.7063C71.5068 59.7063 70.6368 58.9563 70.3068 57.9963H66.2568C66.6768 60.9963 69.2568 62.7963 73.4568 62.7963ZM73.3968 53.3463C71.2968 53.3463 69.9168 51.8163 69.9168 49.2063C69.9168 46.6263 71.2968 45.0063 73.3668 45.0063C75.8268 45.0063 77.0268 46.9263 77.0268 49.1763C77.0268 51.4563 75.9768 53.3463 73.3968 53.3463Z" fill="#355030"/>
<path d="M90.7539 57.9963C95.5239 57.9963 98.7939 54.4563 98.7939 49.8663C98.7939 45.2763 95.5239 41.7363 90.7539 41.7363C85.9839 41.7363 82.7139 45.2763 82.7139 49.8663C82.7139 54.4563 85.9839 57.9963 90.7539 57.9963ZM90.7539 54.8763C88.2339 54.8763 86.8539 52.8663 86.8539 49.8663C86.8539 46.8663 88.2339 44.8263 90.7539 44.8263C93.2439 44.8263 94.6539 46.8663 94.6539 49.8663C94.6539 52.8663 93.2439 54.8763 90.7539 54.8763Z" fill="#355030"/>
<path d="M222.704 38.7963C222.704 38.1059 223.263 37.5463 223.954 37.5463H226.454C227.144 37.5463 227.704 38.1059 227.704 38.7963C227.704 39.4866 227.144 40.0463 226.454 40.0463H223.954C223.263 40.0463 222.704 39.4866 222.704 38.7963Z" fill="#355030"/>
</g>
<defs>
<clipPath id="clip0_267_2631">
<rect width="186" height="41" fill="white" transform="translate(42 29)"/>
</clipPath>
</defs>
</svg>
