<svg width="270" height="99" viewBox="0 0 270 99" fill="none" xmlns="http://www.w3.org/2000/svg">
<rect x="0.5" y="0.5" width="269" height="98" fill="white" stroke="#DADADA"/>
<g clip-path="url(#clip0_267_2645)">
<path d="M161.861 67.225C162.62 67.225 163.069 66.65 163.069 65.751C163.069 64.819 162.587 64.277 161.877 64.277C161.471 64.277 161.189 64.457 160.978 64.743H160.968V63.27H160.528V67.143H160.968V66.775H160.978C161.206 67.089 161.482 67.225 161.861 67.225ZM161.829 66.856C161.233 66.856 160.94 66.385 160.94 65.756C160.94 65.15 161.222 64.651 161.834 64.651C162.365 64.651 162.62 65.128 162.62 65.756C162.62 66.39 162.365 66.856 161.829 66.856ZM163.812 68.07C164.153 68.07 164.37 67.95 164.597 67.37L165.795 64.342H165.329L164.689 66.087C164.603 66.32 164.505 66.634 164.505 66.634H164.495C164.495 66.634 164.391 66.32 164.305 66.087L163.644 64.342H163.167L164.261 67.062L164.153 67.338C164.045 67.609 163.92 67.68 163.736 67.68C163.633 67.6852 163.531 67.6646 163.438 67.62H163.416V68.01C163.536 68.059 163.644 68.07 163.812 68.07ZM166.918 67.143H167.655V63.27H166.918V67.143ZM169.457 67.225C170.318 67.225 170.909 66.585 170.909 65.756C170.909 64.927 170.319 64.288 169.457 64.288C168.596 64.288 168.005 64.928 168.005 65.756C168.005 66.586 168.595 67.225 169.457 67.225ZM169.457 66.661C169.002 66.661 168.753 66.298 168.753 65.756C168.753 65.215 169.002 64.846 169.457 64.846C169.907 64.846 170.161 65.215 170.161 65.756C170.161 66.298 169.907 66.661 169.457 66.661ZM172.476 68.091C172.888 68.091 173.245 67.994 173.478 67.777C173.684 67.587 173.809 67.322 173.809 66.932V64.364H173.099V64.657H173.088C172.92 64.424 172.666 64.288 172.318 64.288C171.615 64.288 171.116 64.819 171.116 65.648C171.116 66.488 171.723 66.975 172.341 66.975C172.693 66.975 172.904 66.835 173.066 66.65H173.083V66.954C173.083 67.333 172.883 67.534 172.465 67.534C172.124 67.534 171.967 67.398 171.907 67.224H171.176C171.251 67.766 171.717 68.091 172.476 68.091ZM172.466 66.385C172.086 66.385 171.836 66.109 171.836 65.637C171.836 65.171 172.086 64.879 172.46 64.879C172.904 64.879 173.121 65.225 173.121 65.632C173.121 66.044 172.931 66.385 172.465 66.385H172.466ZM175.6 67.225C176.461 67.225 177.052 66.585 177.052 65.756C177.052 64.927 176.461 64.288 175.6 64.288C174.738 64.288 174.148 64.928 174.148 65.756C174.148 66.586 174.738 67.225 175.6 67.225ZM175.6 66.661C175.145 66.661 174.895 66.298 174.895 65.756C174.895 65.215 175.145 64.846 175.6 64.846C176.049 64.846 176.304 65.215 176.304 65.756C176.304 66.298 176.049 66.661 175.6 66.661ZM177.394 67.143H178.131V64.364H177.394V67.143ZM177.394 63.931H178.131V63.27H177.394V63.931ZM178.606 68.053H179.343V66.83H179.353C179.511 67.069 179.765 67.226 180.155 67.226C180.87 67.226 181.358 66.656 181.358 65.757C181.358 64.89 180.887 64.289 180.15 64.289C179.989 64.2864 179.83 64.3237 179.688 64.3975C179.545 64.4713 179.423 64.5794 179.332 64.712H179.316V64.365H178.606V68.055V68.053ZM179.998 66.613C179.559 66.613 179.326 66.282 179.326 65.778C179.326 65.28 179.511 64.884 179.971 64.884C180.426 64.884 180.61 65.252 180.61 65.778C180.61 66.304 180.372 66.613 179.998 66.613ZM182.828 67.225C183.521 67.225 183.998 66.889 183.998 66.331C183.998 65.681 183.483 65.551 183.017 65.453C182.622 65.372 182.254 65.35 182.254 65.112C182.254 64.912 182.443 64.802 182.73 64.802C183.045 64.802 183.234 64.912 183.267 65.209H183.933C183.879 64.651 183.473 64.289 182.741 64.289C182.107 64.289 181.609 64.575 181.609 65.177C181.609 65.783 182.096 65.919 182.595 66.017C182.974 66.092 183.326 66.119 183.326 66.385C183.326 66.58 183.142 66.705 182.817 66.705C182.487 66.705 182.259 66.564 182.21 66.244H181.528C181.571 66.834 182.021 67.225 182.828 67.225ZM186.796 67.143V64.364H186.059V65.968C186.059 66.336 185.847 66.596 185.501 66.596C185.187 66.596 185.04 66.417 185.04 66.092V64.364H184.309V66.217C184.309 66.824 184.656 67.219 185.273 67.219C185.663 67.219 185.88 67.073 186.07 66.819H186.086V67.143H186.796ZM187.272 67.143H188.009V65.53C188.009 65.161 188.209 64.923 188.507 64.923C188.778 64.923 188.935 65.086 188.935 65.4V67.144H189.672V65.53C189.672 65.161 189.862 64.923 190.171 64.923C190.442 64.923 190.599 65.086 190.599 65.4V67.144H191.336V65.275C191.336 64.668 191.005 64.289 190.42 64.289C190.068 64.289 189.775 64.473 189.586 64.777H189.575C189.508 64.6294 189.4 64.5045 189.263 64.4178C189.126 64.3311 188.967 64.2863 188.805 64.289C188.642 64.2849 188.482 64.3245 188.34 64.4037C188.198 64.4828 188.08 64.5986 187.998 64.739H187.982V64.365H187.272V67.145V67.143Z" fill="#E5708C"/>
<path d="M191.481 32.149C191.481 30.966 192.44 30.006 193.623 30.006H195.052C195.62 30.006 196.165 30.2318 196.567 30.6337C196.969 31.0356 197.195 31.5806 197.195 32.149C197.195 32.7174 196.969 33.2624 196.567 33.6643C196.165 34.0662 195.62 34.292 195.052 34.292H193.623C193.342 34.292 193.063 34.2366 192.803 34.1289C192.543 34.0211 192.307 33.8633 192.108 33.6643C191.909 33.4653 191.751 33.229 191.644 32.969C191.536 32.709 191.481 32.4304 191.481 32.149ZM131.49 44.29C131.49 52.178 125.096 58.573 117.207 58.573C109.319 58.573 102.924 52.178 102.924 44.29C102.924 36.4 109.319 30.007 117.207 30.007C125.096 30.007 131.49 36.4 131.49 44.29ZM100.138 44.219C100.928 44.219 101.574 44.859 101.495 45.645C101.225 48.3348 100.197 50.8928 98.5311 53.0216C96.8649 55.1505 94.6288 56.7628 92.0827 57.6711C89.5365 58.5795 86.7848 58.7466 84.1475 58.1531C81.5101 57.5596 79.0953 56.2297 77.1838 54.3182C75.2722 52.4067 73.9424 49.9919 73.3489 47.3545C72.7553 44.7171 72.9225 41.9655 73.8308 39.4193C74.7392 36.8731 76.3515 34.6371 78.4803 32.9709C80.6092 31.3048 83.1671 30.277 85.857 30.007C86.642 29.927 87.283 30.575 87.283 31.363V42.79C87.283 43.58 87.923 44.219 88.712 44.219H100.138ZM151.487 61.43C152.623 61.43 153.713 61.8815 154.517 62.685C155.321 63.4886 155.772 64.5785 155.772 65.715C155.772 66.8515 155.321 67.9414 154.517 68.745C153.713 69.5485 152.623 70 151.487 70H144.346C143.21 70 142.12 69.5485 141.316 68.745C140.512 67.9414 140.061 66.8515 140.061 65.715C140.061 64.5785 140.512 63.4886 141.316 62.685C142.12 61.8815 143.21 61.43 144.346 61.43H151.487ZM147.202 58.573C155.091 58.573 161.486 52.178 161.486 44.29C161.489 41.8669 160.874 39.4832 159.697 37.365L162.057 35.005C162.329 34.733 162.544 34.4102 162.691 34.0549C162.839 33.6996 162.914 33.3188 162.914 32.9343C162.914 32.5498 162.838 32.169 162.691 31.8138C162.544 31.4586 162.328 31.1358 162.056 30.864C161.784 30.5922 161.461 30.3766 161.106 30.2295C160.751 30.0824 160.37 30.0068 159.985 30.0069C159.601 30.007 159.22 30.0828 158.865 30.23C158.51 30.3773 158.187 30.593 157.915 30.865L155.855 32.925C153.37 31.0269 150.328 30.001 147.201 30.006C139.314 30.007 132.92 36.4 132.92 44.29C132.92 52.178 139.314 58.573 147.202 58.573ZM191.481 44.29C191.481 52.178 185.086 58.573 177.197 58.573C169.309 58.573 162.914 52.178 162.914 44.29C162.914 36.4 169.309 30.007 177.197 30.007C185.086 30.007 191.481 36.401 191.481 44.29Z" fill="url(#paint0_linear_267_2645)"/>
</g>
<defs>
<linearGradient id="paint0_linear_267_2645" x1="73" y1="46" x2="192" y2="46" gradientUnits="userSpaceOnUse">
<stop stop-color="#64C2DB"/>
<stop offset="0.307" stop-color="#7476ED"/>
<stop offset="0.604" stop-color="#C994DF"/>
<stop offset="1" stop-color="#E56F8C"/>
</linearGradient>
<clipPath id="clip0_267_2645">
<rect width="125" height="40" fill="white" transform="translate(73 30)"/>
</clipPath>
</defs>
</svg>
