<svg width="270" height="99" viewBox="0 0 270 99" fill="none" xmlns="http://www.w3.org/2000/svg">
<rect x="0.5" y="0.5" width="269" height="98" fill="white" stroke="#DADADA"/>
<path d="M87.5852 53.5165H90.4181V67.4072H87.5852V53.5165Z" fill="#394149"/>
<path d="M92.0613 62.6479C92.0594 61.6502 92.3535 60.6743 92.9065 59.8438C93.4594 59.0133 94.2463 58.3655 95.1676 57.9824C96.0888 57.5993 97.103 57.4981 98.0818 57.6916C99.0606 57.8851 99.96 58.3646 100.666 59.0695C101.372 59.7743 101.853 60.6728 102.049 61.6512C102.244 62.6296 102.145 63.644 101.763 64.566C101.382 65.4879 100.736 66.276 99.9063 66.8305C99.0769 67.3851 98.1016 67.681 97.1039 67.681C96.4403 67.6886 95.782 67.5637 95.1674 67.3135C94.5528 67.0634 93.9943 66.6931 93.5247 66.2243C93.055 65.7556 92.6837 65.1978 92.4324 64.5836C92.1811 63.9695 92.0549 63.3114 92.0613 62.6479ZM99.2946 62.6479C99.2835 62.2172 99.1456 61.7993 98.8982 61.4466C98.6508 61.0938 98.3049 60.8219 97.9037 60.6647C97.5025 60.5075 97.0639 60.4722 96.6428 60.563C96.2216 60.6538 95.8366 60.8668 95.5358 61.1753C95.2351 61.4838 95.032 61.8742 94.9519 62.2976C94.8719 62.7209 94.9185 63.1585 95.0858 63.5555C95.2532 63.9525 95.5339 64.2914 95.8928 64.5297C96.2518 64.768 96.673 64.8952 97.1039 64.8953C97.3986 64.9036 97.6919 64.8507 97.9652 64.7399C98.2385 64.6291 98.4859 64.4629 98.6918 64.2517C98.8976 64.0405 99.0575 63.789 99.1612 63.513C99.265 63.2369 99.3104 62.9424 99.2946 62.6479Z" fill="#394149"/>
<path d="M113.534 57.8886V66.935C113.534 70.1362 111.032 71.4866 108.501 71.4866C107.611 71.5528 106.72 71.3728 105.926 70.9664C105.131 70.56 104.464 69.9428 103.997 69.1825L106.433 67.7755C106.627 68.1651 106.933 68.4878 107.311 68.7016C107.69 68.9154 108.124 69.0106 108.558 68.9747C108.843 69.0223 109.136 69.0037 109.413 68.9203C109.69 68.837 109.944 68.6912 110.155 68.4941C110.367 68.297 110.531 68.0539 110.634 67.7836C110.736 67.5133 110.776 67.223 110.749 66.935V66.0568C110.416 66.4666 109.991 66.7921 109.508 67.007C109.026 67.2219 108.5 67.3202 107.973 67.2939C106.69 67.2939 105.461 66.7845 104.554 65.8778C103.647 64.9711 103.138 63.7413 103.138 62.459C103.138 61.1767 103.647 59.947 104.554 59.0403C105.461 58.1336 106.69 57.6242 107.973 57.6242C108.5 57.6001 109.025 57.6994 109.507 57.9141C109.989 58.1289 110.414 58.4532 110.749 58.8612V57.9169L113.534 57.8886ZM110.749 62.459C110.768 61.9998 110.649 61.5454 110.407 61.1542C110.166 60.7631 109.813 60.4531 109.394 60.2642C108.975 60.0752 108.509 60.0159 108.056 60.0939C107.603 60.1718 107.184 60.3835 106.852 60.7016C106.52 61.0198 106.291 61.4299 106.194 61.8792C106.097 62.3285 106.137 62.7966 106.308 63.2231C106.48 63.6497 106.775 64.0152 107.155 64.2728C107.536 64.5305 107.985 64.6683 108.445 64.6687C108.745 64.6899 109.046 64.6481 109.329 64.5458C109.612 64.4435 109.87 64.2832 110.087 64.075C110.304 63.8668 110.475 63.6154 110.589 63.3371C110.703 63.0588 110.757 62.7597 110.749 62.459Z" fill="#394149"/>
<path d="M115.168 62.6479C115.166 61.6502 115.461 60.6743 116.013 59.8438C116.566 59.0133 117.353 58.3655 118.275 57.9824C119.196 57.5993 120.21 57.4981 121.189 57.6916C122.168 57.8851 123.067 58.3646 123.773 59.0695C124.479 59.7743 124.96 60.6728 125.156 61.6512C125.351 62.6296 125.252 63.644 124.87 64.566C124.489 65.4879 123.843 66.276 123.013 66.8305C122.184 67.3851 121.208 67.681 120.211 67.681C119.547 67.6886 118.889 67.5637 118.274 67.3135C117.66 67.0634 117.101 66.6931 116.632 66.2243C116.162 65.7556 115.791 65.1978 115.539 64.5836C115.288 63.9695 115.162 63.3114 115.168 62.6479ZM122.402 62.6479C122.39 62.2172 122.252 61.7993 122.005 61.4466C121.758 61.0938 121.412 60.8219 121.011 60.6647C120.609 60.5075 120.171 60.4722 119.75 60.563C119.329 60.6538 118.943 60.8668 118.643 61.1753C118.342 61.4838 118.139 61.8742 118.059 62.2976C117.979 62.7209 118.025 63.1585 118.193 63.5555C118.36 63.9525 118.641 64.2914 119 64.5297C119.359 64.768 119.78 64.8952 120.211 64.8953C120.504 64.9009 120.795 64.8461 121.066 64.7341C121.337 64.6221 121.582 64.4555 121.786 64.2446C121.99 64.0338 122.148 63.7831 122.251 63.5084C122.353 63.2337 122.398 62.9407 122.383 62.6479H122.402Z" fill="#394149"/>
<path d="M126.566 55.339C126.566 54.9991 126.667 54.6668 126.856 54.3842C127.045 54.1016 127.313 53.8813 127.627 53.7512C127.941 53.6211 128.287 53.5871 128.62 53.6534C128.953 53.7197 129.26 53.8834 129.5 54.1237C129.74 54.3641 129.904 54.6703 129.97 55.0037C130.037 55.3371 130.003 55.6827 129.873 55.9967C129.743 56.3107 129.522 56.5792 129.24 56.768C128.957 56.9568 128.625 57.0576 128.285 57.0576C127.83 57.0552 127.394 56.8733 127.072 56.5515C126.75 56.2298 126.569 55.7941 126.566 55.339ZM126.859 57.8886H129.692V67.4072H126.859V57.8886Z" fill="#394149"/>
<path d="M142.043 62.6479C142.077 63.2771 141.987 63.9069 141.777 64.501C141.567 65.0951 141.242 65.6418 140.819 66.1096C140.397 66.5774 139.887 66.9571 139.317 67.2268C138.748 67.4965 138.13 67.6509 137.501 67.6811C136.973 67.7064 136.445 67.6156 135.956 67.4149C135.466 67.2142 135.027 66.9086 134.668 66.5196V71.2411H131.835V57.8886H134.668V58.7857C135.027 58.3967 135.466 58.0911 135.956 57.8904C136.445 57.6897 136.973 57.5989 137.501 57.6242C138.13 57.6544 138.746 57.8085 139.315 58.0776C139.884 58.3468 140.394 58.7256 140.816 59.1924C141.238 59.6592 141.564 60.2047 141.774 60.7977C141.985 61.3907 142.076 62.0195 142.043 62.6479ZM139.21 62.6479C139.199 62.2047 139.058 61.7745 138.805 61.4106C138.551 61.0468 138.197 60.7651 137.785 60.6007C137.374 60.4362 136.923 60.3961 136.488 60.4854C136.054 60.5746 135.656 60.7893 135.342 61.1028C135.029 61.4163 134.814 61.8148 134.725 62.2491C134.635 62.6834 134.676 63.1343 134.84 63.546C135.004 63.9577 135.286 64.3122 135.65 64.5654C136.014 64.8187 136.444 64.9597 136.887 64.9709C137.197 64.9906 137.506 64.9438 137.796 64.8338C138.086 64.7237 138.349 64.5529 138.567 64.3329C138.785 64.1128 138.954 63.8486 139.062 63.558C139.169 63.2674 139.214 62.9571 139.191 62.6479H139.21Z" fill="#394149"/>
<path d="M150.863 64.5554C150.863 66.7462 148.974 67.681 146.897 67.681C146.067 67.7545 145.234 67.5779 144.505 67.174C143.777 66.7701 143.186 66.1574 142.808 65.4147L145.282 64.0077C145.383 64.3512 145.598 64.65 145.891 64.8544C146.185 65.0588 146.54 65.1566 146.897 65.1314C147.586 65.1314 147.926 64.9142 147.926 64.5365C147.926 63.4883 143.205 64.0455 143.205 60.7593C143.205 58.6818 144.961 57.6336 146.982 57.6336C147.728 57.611 148.466 57.7881 149.12 58.1468C149.774 58.5054 150.321 59.0325 150.703 59.6733L148.219 60.9765C148.109 60.7271 147.93 60.5149 147.702 60.3657C147.474 60.2165 147.207 60.1367 146.935 60.136C146.444 60.136 146.142 60.3249 146.142 60.6743C146.179 61.7602 150.863 61.0331 150.863 64.5554Z" fill="#394149"/>
<path d="M161.288 57.8886V67.4072H158.455V66.5196C158.126 66.914 157.707 67.2248 157.235 67.4267C156.762 67.6286 156.248 67.7157 155.736 67.6811C153.847 67.6811 152.176 66.3118 152.176 63.7339V57.8886H155.008V63.3184C154.984 63.5498 155.011 63.7838 155.087 64.0035C155.164 64.2232 155.289 64.423 155.453 64.5885C155.616 64.754 155.815 64.8809 156.033 64.9601C156.252 65.0394 156.486 65.0688 156.718 65.0465C157.756 65.0465 158.484 64.4421 158.484 63.0918V57.8886H161.288Z" fill="#394149"/>
<path d="M177.662 61.5713V67.4071H174.829V61.8169C174.829 60.8726 174.367 60.2493 173.46 60.2493C172.554 60.2493 171.968 60.9198 171.968 62.0435V67.4071H169.135V61.8169C169.135 60.8726 168.682 60.2493 167.766 60.2493C166.85 60.2493 166.283 60.9198 166.283 62.0435V67.4071H163.45V57.8886H166.283V58.7668C166.579 58.3789 166.968 58.0712 167.413 57.8717C167.858 57.6721 168.346 57.587 168.833 57.6242C169.322 57.6004 169.808 57.7037 170.245 57.9237C170.682 58.1438 171.054 58.4733 171.326 58.8801C171.642 58.4548 172.061 58.1165 172.543 57.8969C173.025 57.6773 173.555 57.5834 174.083 57.6242C176.236 57.6242 177.662 59.1917 177.662 61.5713Z" fill="#394149"/>
<path d="M180.08 57.832C181.248 57.832 182.195 56.8849 182.195 55.7167C182.195 54.5485 181.248 53.6015 180.08 53.6015C178.912 53.6015 177.965 54.5485 177.965 55.7167C177.965 56.8849 178.912 57.832 180.08 57.832Z" fill="#394149"/>
<path d="M119.644 46.3115C125.115 46.3115 129.55 41.8765 129.55 36.4057C129.55 30.9349 125.115 26.5 119.644 26.5C114.174 26.5 109.739 30.9349 109.739 36.4057C109.739 41.8765 114.174 46.3115 119.644 46.3115Z" fill="#394149"/>
<path d="M141.788 46.3115C147.259 46.3115 151.694 41.8765 151.694 36.4057C151.694 30.9349 147.259 26.5 141.788 26.5C136.317 26.5 131.882 30.9349 131.882 36.4057C131.882 41.8765 136.317 46.3115 141.788 46.3115Z" fill="#394149"/>
<path d="M107.406 26.5H87.604V46.302H107.406V26.5Z" fill="#394149"/>
</svg>
