<svg width="270" height="99" viewBox="0 0 270 99" fill="none" xmlns="http://www.w3.org/2000/svg">
<rect x="0.5" y="0.5" width="269" height="98" fill="white" stroke="#DADADA"/>
<g clip-path="url(#clip0_274_1580)">
<path d="M100.631 57.7936H112.583V54.1936H104.879V40.6336H100.631V57.7936Z" fill="#2F234F"/>
<path d="M119.664 55.3936C117.96 55.3936 117.072 53.9056 117.072 51.6736C117.072 49.4416 117.96 47.9296 119.664 47.9296C121.368 47.9296 122.28 49.4416 122.28 51.6736C122.28 53.9056 121.368 55.3936 119.664 55.3936ZM119.688 58.1776C123.648 58.1776 126.24 55.3696 126.24 51.6736C126.24 47.9776 123.648 45.1696 119.688 45.1696C115.752 45.1696 113.112 47.9776 113.112 51.6736C113.112 55.3696 115.752 58.1776 119.688 58.1776Z" fill="#2F234F"/>
<path d="M133.094 62.0416C134.918 62.0416 136.526 61.6336 137.606 60.6736C138.59 59.7856 139.238 58.4416 139.238 56.5936V45.5056H135.494V46.8256H135.446C134.726 45.7936 133.622 45.1456 131.99 45.1456C128.942 45.1456 126.83 47.6896 126.83 51.2896C126.83 55.0576 129.398 57.1216 132.158 57.1216C133.646 57.1216 134.582 56.5216 135.302 55.7056H135.398V56.9296C135.398 58.4176 134.702 59.2816 133.046 59.2816C131.75 59.2816 131.102 58.7296 130.886 58.0816H127.094C127.478 60.6496 129.71 62.0416 133.094 62.0416ZM133.07 54.2176C131.606 54.2176 130.646 53.0176 130.646 51.1696C130.646 49.2976 131.606 48.0976 133.07 48.0976C134.702 48.0976 135.566 49.4896 135.566 51.1456C135.566 52.8736 134.774 54.2176 133.07 54.2176Z" fill="#2F234F"/>
<path d="M146.937 55.3936C145.233 55.3936 144.345 53.9056 144.345 51.6736C144.345 49.4416 145.233 47.9296 146.937 47.9296C148.641 47.9296 149.553 49.4416 149.553 51.6736C149.553 53.9056 148.641 55.3936 146.937 55.3936ZM146.961 58.1776C150.921 58.1776 153.513 55.3696 153.513 51.6736C153.513 47.9776 150.921 45.1696 146.961 45.1696C143.025 45.1696 140.385 47.9776 140.385 51.6736C140.385 55.3696 143.025 58.1776 146.961 58.1776Z" fill="#2F234F"/>
<path d="M154.655 57.7936H158.567V45.5056H154.655V57.7936ZM154.655 43.8016H158.567V40.6336H154.655V43.8016Z" fill="#2F234F"/>
<path d="M160.264 61.8496H164.176V56.5216H164.224C164.992 57.5536 166.12 58.1776 167.704 58.1776C170.92 58.1776 173.056 55.6336 173.056 51.6496C173.056 47.9536 171.064 45.1456 167.8 45.1456C166.12 45.1456 164.92 45.8896 164.08 46.9936H164.008V45.5056H160.264V61.8496ZM166.696 55.1536C165.016 55.1536 164.056 53.7856 164.056 51.7936C164.056 49.8016 164.92 48.2896 166.624 48.2896C168.304 48.2896 169.096 49.6816 169.096 51.7936C169.096 53.8816 168.184 55.1536 166.696 55.1536Z" fill="#2F234F"/>
<path d="M179.426 58.1776C182.642 58.1776 185.018 56.7856 185.018 54.0976C185.018 50.9536 182.474 50.4016 180.314 50.0416C178.754 49.7536 177.362 49.6336 177.362 48.7696C177.362 48.0016 178.106 47.6416 179.066 47.6416C180.146 47.6416 180.89 47.9776 181.034 49.0816H184.634C184.442 46.6576 182.57 45.1456 179.09 45.1456C176.186 45.1456 173.786 46.4896 173.786 49.0816C173.786 51.9616 176.066 52.5376 178.202 52.8976C179.834 53.1856 181.322 53.3056 181.322 54.4096C181.322 55.2016 180.578 55.6336 179.402 55.6336C178.106 55.6336 177.29 55.0336 177.146 53.8096H173.45C173.57 56.5216 175.826 58.1776 179.426 58.1776Z" fill="#2F234F"/>
<path d="M190.331 58.1536C192.035 58.1536 193.115 57.4816 194.003 56.2816H194.075V57.7936H197.819V45.5056H193.907V52.3696C193.907 53.8336 193.091 54.8416 191.747 54.8416C190.499 54.8416 189.899 54.0976 189.899 52.7536V45.5056H186.011V53.5696C186.011 56.3056 187.499 58.1536 190.331 58.1536Z" fill="#2F234F"/>
<path d="M199.521 57.7936H203.433V50.9056C203.433 49.4416 204.153 48.4096 205.377 48.4096C206.553 48.4096 207.105 49.1776 207.105 50.4976V57.7936H211.017V50.9056C211.017 49.4416 211.713 48.4096 212.961 48.4096C214.137 48.4096 214.689 49.1776 214.689 50.4976V57.7936H218.601V49.8016C218.601 47.0416 217.209 45.1456 214.425 45.1456C212.841 45.1456 211.521 45.8176 210.561 47.3056H210.513C209.889 45.9856 208.665 45.1456 207.057 45.1456C205.281 45.1456 204.105 45.9856 203.337 47.2576H203.265V45.5056H199.521V57.7936Z" fill="#2F234F"/>
<path fill-rule="evenodd" clip-rule="evenodd" d="M60.654 32.8915C59.2234 33.8918 57.9297 35.0746 56.8066 36.406C61.3959 35.9799 67.2265 36.6757 73.9957 40.0603C81.2243 43.6745 87.0451 43.7967 91.0961 43.0153C90.7285 41.9024 90.2657 40.8328 89.7176 39.816C85.0803 40.3051 79.1353 39.6577 72.2069 36.1936C67.8073 33.9938 63.9291 33.0876 60.654 32.8915ZM87.0087 35.9603C83.3466 31.8686 78.0247 29.2936 72.1013 29.2936C70.3618 29.2936 68.674 29.5157 67.065 29.9331C69.2442 30.5277 71.5592 31.3976 73.9957 32.6159C79.0683 35.1522 83.4477 35.9688 87.0087 35.9603ZM91.9622 46.9217C87.0682 47.8881 80.3101 47.6896 72.2069 43.638C64.6313 39.8502 58.6017 39.8979 54.5352 40.8016C54.3253 40.8482 54.1204 40.8972 53.9203 40.9482C53.3879 42.1061 52.963 43.3237 52.658 44.5881C52.9837 44.5011 53.3202 44.4184 53.6675 44.3412C58.6009 43.2449 65.5714 43.2925 73.9957 47.5047C81.5714 51.2925 87.6009 51.2448 91.6675 50.3411C91.8068 50.3102 91.9441 50.2782 92.0791 50.2452C92.0939 49.9299 92.1013 49.6126 92.1013 49.2936C92.1013 48.4911 92.0541 47.6996 91.9622 46.9217ZM91.4261 54.4659C86.5796 55.3132 80.0183 54.988 72.2069 51.0824C64.6313 47.2946 58.6017 47.3423 54.5352 48.246C53.6326 48.4465 52.8206 48.6908 52.1042 48.9487C52.1023 49.0634 52.1013 49.1784 52.1013 49.2936C52.1013 60.3393 61.0556 69.2936 72.1013 69.2936C81.3584 69.2936 89.1466 63.0045 91.4261 54.4659Z" fill="#7F57F1"/>
</g>
<defs>
<clipPath id="clip0_274_1580">
<rect width="167" height="41" fill="white" transform="translate(52 29)"/>
</clipPath>
</defs>
</svg>
